ISO-10303-21;
HEADER;
FILE_DESCRIPTION (( 'STEP AP203' ),
    '1' );
FILE_NAME ('TMR4.STEP',
    '2020-04-07T01:11:55',
    ( '' ),
    ( '' ),
    'SwSTEP 2.0',
    'SolidWorks 2018',
    '' );
FILE_SCHEMA (( 'CONFIG_CONTROL_DESIGN' ));
ENDSEC;

DATA;
#1 = LINE ( 'NONE', #1097, #259 ) ;
#2 = LINE ( 'NONE', #159, #792 ) ;
#3 = EDGE_CURVE ( 'NONE', #1269, #563, #89, .T. ) ;
#4 = CARTESIAN_POINT ( 'NONE',  ( 0.0000000000000000000, 4.650000000000000355, 11.35000000000000142 ) ) ;
#5 = CARTESIAN_POINT ( 'NONE',  ( 4.060000000000001386, -2.200000000000000622, 15.34999999999999964 ) ) ;
#6 = CC_DESIGN_DATE_AND_TIME_ASSIGNMENT ( #140, #615, ( #126 ) ) ;
#7 = LINE ( 'NONE', #646, #226 ) ;
#8 = DIRECTION ( 'NONE',  ( -0.0000000000000000000, -0.0000000000000000000, -1.000000000000000000 ) ) ;
#9 = FACE_OUTER_BOUND ( 'NONE', #338, .T. ) ;
#10 = PLANE ( 'NONE',  #1120 ) ;
#11 = ORIENTED_EDGE ( 'NONE', *, *, #484, .F. ) ;
#12 = DIRECTION ( 'NONE',  ( 0.0000000000000000000, 0.0000000000000000000, -1.000000000000000000 ) ) ;
#13 = CARTESIAN_POINT ( 'NONE',  ( 10.40000000000000036, 4.650000000000001243, 11.35000000000000142 ) ) ;
#14 = CARTESIAN_POINT ( 'NONE',  ( 10.39441403892320004, -8.326672684688670109E-16, 10.94999999999999929 ) ) ;
#15 = AXIS2_PLACEMENT_3D ( 'NONE', #1359, #110, #382 ) ;
#16 = DIRECTION ( 'NONE',  ( -0.01396218033914530324, 0.0000000000000000000, 0.9999025240093042388 ) ) ;
#17 = VERTEX_POINT ( 'NONE', #291 ) ;
#18 = MANIFOLD_SOLID_BREP ( '\X2\5BE69AD4\X0\1', #1003 ) ;
#19 = ORIENTED_EDGE ( 'NONE', *, *, #1317, .T. ) ;
#20 = PLANE ( 'NONE',  #1153 ) ;
#21 = VERTEX_POINT ( 'NONE', #686 ) ;
#22 = ADVANCED_FACE ( 'NONE', ( #161 ), #828, .F. ) ;
#23 = FACE_OUTER_BOUND ( 'NONE', #999, .T. ) ;
#24 = VECTOR ( 'NONE', #370, 1000.000000000000000 ) ;
#25 = CARTESIAN_POINT ( 'NONE',  ( 3.560000000000000497, -2.200000000000000622, 15.34999999999999964 ) ) ;
#26 = EDGE_CURVE ( 'NONE', #390, #199, #419, .T. ) ;
#27 = ORIENTED_EDGE ( 'NONE', *, *, #772, .F. ) ;
#28 = LINE ( 'NONE', #926, #1109 ) ;
#29 = FACE_OUTER_BOUND ( 'NONE', #141, .T. ) ;
#30 = CC_DESIGN_APPROVAL ( #642, ( #1107 ) ) ;
#31 = CARTESIAN_POINT ( 'NONE',  ( 3.560000000000000497, -2.200000000000000622, 15.34999999999999964 ) ) ;
#32 = ADVANCED_FACE ( 'NONE', ( #631 ), #807, .F. ) ;
#33 = DIRECTION ( 'NONE',  ( -0.0000000000000000000, -1.000000000000000000, -0.0000000000000000000 ) ) ;
#34 = EDGE_LOOP ( 'NONE', ( #790, #691, #1020, #534 ) ) ;
#35 = CARTESIAN_POINT ( 'NONE',  ( 10.74151380455179350, 4.491513804551789057, -1.072026073868723867E-16 ) ) ;
#36 = EDGE_CURVE ( 'NONE', #354, #771, #700, .T. ) ;
#37 = PLANE ( 'NONE',  #1040 ) ;
#38 = ADVANCED_FACE ( 'NONE', ( #928 ), #190, .F. ) ;
#39 = COORDINATED_UNIVERSAL_TIME_OFFSET ( 8, 0, .AHEAD. ) ;
#40 = ORIENTED_EDGE ( 'NONE', *, *, #785, .T. ) ;
#41 = FACE_OUTER_BOUND ( 'NONE', #1297, .T. ) ;
#42 = VECTOR ( 'NONE', #802, 1000.000000000000000 ) ;
#43 = DIRECTION ( 'NONE',  ( -0.0000000000000000000, -1.000000000000000000, -0.0000000000000000000 ) ) ;
#44 = LINE ( 'NONE', #14, #750 ) ;
#45 = AXIS2_PLACEMENT_3D ( 'NONE', #245, #665, #767 ) ;
#46 = ORIENTED_EDGE ( 'NONE', *, *, #121, .T. ) ;
#47 = FACE_OUTER_BOUND ( 'NONE', #394, .T. ) ;
#48 = ADVANCED_FACE ( 'NONE', ( #459 ), #616, .F. ) ;
#49 = ORIENTED_EDGE ( 'NONE', *, *, #454, .T. ) ;
#50 = DIRECTION ( 'NONE',  ( -0.0000000000000000000, -1.000000000000000000, -0.0000000000000000000 ) ) ;
#51 = ORIENTED_EDGE ( 'NONE', *, *, #1243, .F. ) ;
#52 = DIRECTION ( 'NONE',  ( -0.0000000000000000000, -1.000000000000000000, -0.0000000000000000000 ) ) ;
#53 = EDGE_CURVE ( 'NONE', #797, #519, #606, .T. ) ;
#54 = EDGE_LOOP ( 'NONE', ( #206, #96, #548, #1287 ) ) ;
#55 = CC_DESIGN_APPROVAL ( #486, ( #409 ) ) ;
#56 = ORIENTED_EDGE ( 'NONE', *, *, #1348, .T. ) ;
#57 = CARTESIAN_POINT ( 'NONE',  ( -6.599999999999999645, -1.950000000000001288, 10.94999999999999929 ) ) ;
#58 = VERTEX_POINT ( 'NONE', #80 ) ;
#59 = VECTOR ( 'NONE', #1013, 1000.000000000000000 ) ;
#60 = CARTESIAN_POINT ( 'NONE',  ( 1.020000000000000462, -1.950000000000001288, 10.94999999999999929 ) ) ;
#61 = FACE_OUTER_BOUND ( 'NONE', #908, .T. ) ;
#62 = EDGE_CURVE ( 'NONE', #478, #171, #204, .T. ) ;
#63 = LINE ( 'NONE', #1156, #193 ) ;
#64 = CARTESIAN_POINT ( 'NONE',  ( -9.140000000000000568, -2.200000000000000622, 15.34999999999999964 ) ) ;
#65 = DIRECTION ( 'NONE',  ( 0.0000000000000000000, 1.000000000000000000, 0.0000000000000000000 ) ) ;
#66 = DIRECTION ( 'NONE',  ( -1.000000000000000000, -5.091773371539360726E-17, -7.109918852332943588E-19 ) ) ;
#67 = CARTESIAN_POINT ( 'NONE',  ( 8.640000000000002345, -2.200000000000000622, 15.34999999999999964 ) ) ;
#68 = AXIS2_PLACEMENT_3D ( 'NONE', #78, #994, #1307 ) ;
#69 = LOCAL_TIME ( 9, 11, 55.00000000000000000, #536 ) ;
#70 = DIRECTION ( 'NONE',  ( -0.01396218033914430924, -0.01396081936177956395, 0.9998050575201772316 ) ) ;
#71 = ORIENTED_EDGE ( 'NONE', *, *, #85, .F. ) ;
#72 = CARTESIAN_POINT ( 'NONE',  ( 10.90000000000000036, -4.649999999999999467, 11.35000000000000320 ) ) ;
#73 = LINE ( 'NONE', #630, #818 ) ;
#74 = LINE ( 'NONE', #270, #874 ) ;
#75 = VERTEX_POINT ( 'NONE', #1236 ) ;
#76 = FACE_OUTER_BOUND ( 'NONE', #1246, .T. ) ;
#77 = ORIENTED_EDGE ( 'NONE', *, *, #660, .F. ) ;
#78 = CARTESIAN_POINT ( 'NONE',  ( 0.0000000000000000000, 0.0000000000000000000, 15.34999999999999964 ) ) ;
#79 = EDGE_CURVE ( 'NONE', #1057, #635, #339, .T. ) ;
#80 = CARTESIAN_POINT ( 'NONE',  ( 1.520000000000000906, -1.950000000000001288, 15.34999999999999964 ) ) ;
#81 = EDGE_LOOP ( 'NONE', ( #1039, #931, #1221, #886 ) ) ;
#82 = DIRECTION ( 'NONE',  ( 1.000000000000000000, 0.0000000000000000000, 0.0000000000000000000 ) ) ;
#83 = ORIENTED_EDGE ( 'NONE', *, *, #625, .F. ) ;
#84 = ORIENTED_EDGE ( 'NONE', *, *, #1002, .F. ) ;
#85 = EDGE_CURVE ( 'NONE', #1232, #417, #1133, .T. ) ;
#86 = APPROVAL_STATUS ( 'not_yet_approved' ) ;
#87 = CARTESIAN_POINT ( 'NONE',  ( -8.640000000000000568, -2.200000000000000622, 15.34999999999999964 ) ) ;
#88 = ORIENTED_EDGE ( 'NONE', *, *, #964, .F. ) ;
#89 = LINE ( 'NONE', #1350, #102 ) ;
#90 = ORIENTED_EDGE ( 'NONE', *, *, #992, .F. ) ;
#91 = VECTOR ( 'NONE', #1280, 1000.000000000000000 ) ;
#92 = CARTESIAN_POINT ( 'NONE',  ( 6.100000000000001421, -2.200000000000000622, 10.94999999999999929 ) ) ;
#93 = VECTOR ( 'NONE', #33, 1000.000000000000000 ) ;
#94 = EDGE_CURVE ( 'NONE', #198, #528, #714, .T. ) ;
#95 = AXIS2_PLACEMENT_3D ( 'NONE', #1277, #1161, #16 ) ;
#96 = ORIENTED_EDGE ( 'NONE', *, *, #345, .F. ) ;
#97 = DIRECTION ( 'NONE',  ( 0.0000000000000000000, 0.0000000000000000000, 1.000000000000000000 ) ) ;
#98 = EDGE_CURVE ( 'NONE', #1064, #404, #303, .T. ) ;
#99 = DIRECTION ( 'NONE',  ( 0.0000000000000000000, 0.0000000000000000000, 1.000000000000000000 ) ) ;
#100 = DESIGN_CONTEXT ( 'detailed design', #852, 'design' ) ;
#101 = VERTEX_POINT ( 'NONE', #72 ) ;
#102 = VECTOR ( 'NONE', #619, 1000.000000000000000 ) ;
#103 = FACE_OUTER_BOUND ( 'NONE', #899, .T. ) ;
#104 = DIRECTION ( 'NONE',  ( -0.0000000000000000000, -0.0000000000000000000, -1.000000000000000000 ) ) ;
#105 = DIRECTION ( 'NONE',  ( -0.0000000000000000000, -1.000000000000000000, -0.0000000000000000000 ) ) ;
#106 = LINE ( 'NONE', #131, #716 ) ;
#107 = ORIENTED_EDGE ( 'NONE', *, *, #593, .T. ) ;
#108 = CARTESIAN_POINT ( 'NONE',  ( -4.059999999999999609, -1.950000000000001288, 15.34999999999999964 ) ) ;
#109 = ORIENTED_EDGE ( 'NONE', *, *, #1176, .F. ) ;
#110 = DIRECTION ( 'NONE',  ( 0.9999025240093042388, 0.0000000000000000000, -0.01396218033914530324 ) ) ;
#111 = ORIENTED_EDGE ( 'NONE', *, *, #3, .T. ) ;
#112 = AXIS2_PLACEMENT_3D ( 'NONE', #1360, #1262, #542 ) ;
#113 = DIRECTION ( 'NONE',  ( 1.000000000000000000, 0.0000000000000000000, -0.0000000000000000000 ) ) ;
#114 = DIRECTION ( 'NONE',  ( 0.0000000000000000000, 1.000000000000000000, 0.0000000000000000000 ) ) ;
#115 = DIRECTION ( 'NONE',  ( -0.01396081962705680163, 0.01396081962705802461, 0.9998050765177587396 ) ) ;
#116 = EDGE_LOOP ( 'NONE', ( #56, #424, #427, #1186 ) ) ;
#117 = ORIENTED_EDGE ( 'NONE', *, *, #650, .F. ) ;
#118 = ORIENTED_EDGE ( 'NONE', *, *, #36, .T. ) ;
#119 = CARTESIAN_POINT ( 'NONE',  ( 6.100000000000001421, -2.200000000000000622, 15.34999999999999964 ) ) ;
#120 = LINE ( 'NONE', #377, #946 ) ;
#121 = EDGE_CURVE ( 'NONE', #75, #1116, #596, .T. ) ;
#122 = CARTESIAN_POINT ( 'NONE',  ( 4.060000000000001386, -2.200000000000000622, 15.34999999999999964 ) ) ;
#123 = ORIENTED_EDGE ( 'NONE', *, *, #1357, .F. ) ;
#124 = VECTOR ( 'NONE', #637, 1000.000000000000000 ) ;
#125 = CARTESIAN_POINT ( 'NONE',  ( -8.640000000000000568, -1.950000000000001288, 10.94999999999999929 ) ) ;
#126 = SECURITY_CLASSIFICATION ( '', '', #512 ) ;
#127 = VERTEX_POINT ( 'NONE', #258 ) ;
#128 = VECTOR ( 'NONE', #1060, 1000.000000000000000 ) ;
#129 = DIRECTION ( 'NONE',  ( 0.0000000000000000000, -0.0000000000000000000, 1.000000000000000000 ) ) ;
#130 = LINE ( 'NONE', #1264, #1240 ) ;
#131 = CARTESIAN_POINT ( 'NONE',  ( -4.059999999999999609, -1.950000000000001288, 10.94999999999999929 ) ) ;
#132 = ADVANCED_FACE ( 'NONE', ( #274 ), #581, .F. ) ;
#133 = EDGE_CURVE ( 'NONE', #153, #156, #667, .T. ) ;
#134 = CARTESIAN_POINT ( 'NONE',  ( -10.40000000000000213, 4.650000000000000355, 11.35000000000000142 ) ) ;
#135 = AXIS2_PLACEMENT_3D ( 'NONE', #839, #1355, #730 ) ;
#136 = CARTESIAN_POINT ( 'NONE',  ( -10.89999999999999858, -4.650000000000000355, 11.35000000000000142 ) ) ;
#137 = ORIENTED_EDGE ( 'NONE', *, *, #710, .T. ) ;
#138 = ADVANCED_FACE ( 'NONE', ( #1321 ), #1320, .F. ) ;
#139 = PLANE ( 'NONE',  #1211 ) ;
#140 = DATE_AND_TIME ( #455, #350 ) ;
#141 = EDGE_LOOP ( 'NONE', ( #19, #1201, #341, #288 ) ) ;
#142 = LINE ( 'NONE', #591, #176 ) ;
#143 = CARTESIAN_POINT ( 'NONE',  ( 9.140000000000002345, -2.200000000000000622, 15.34999999999999964 ) ) ;
#144 = FACE_BOUND ( 'NONE', #800, .T. ) ;
#145 = PERSON_AND_ORGANIZATION_ROLE ( 'creator' ) ;
#146 = ADVANCED_FACE ( 'NONE', ( #387 ), #471, .F. ) ;
#147 = VECTOR ( 'NONE', #745, 1000.000000000000000 ) ;
#148 = CARTESIAN_POINT ( 'NONE',  ( 3.560000000000000497, -1.950000000000001288, 15.34999999999999964 ) ) ;
#149 = DIRECTION ( 'NONE',  ( -0.0000000000000000000, -0.0000000000000000000, -1.000000000000000000 ) ) ;
#150 = ORIENTED_EDGE ( 'NONE', *, *, #238, .F. ) ;
#151 = ADVANCED_FACE ( 'NONE', ( #23 ), #1115, .F. ) ;
#152 = CARTESIAN_POINT ( 'NONE',  ( 8.640000000000002345, -2.200000000000000622, 10.94999999999999929 ) ) ;
#153 = VERTEX_POINT ( 'NONE', #975 ) ;
#154 = EDGE_CURVE ( 'NONE', #1045, #1167, #759, .T. ) ;
#155 =( GEOMETRIC_REPRESENTATION_CONTEXT ( 3 ) GLOBAL_UNCERTAINTY_ASSIGNED_CONTEXT ( ( #1278 ) ) GLOBAL_UNIT_ASSIGNED_CONTEXT ( ( #464, #1180, #573 ) ) REPRESENTATION_CONTEXT ( 'NONE', 'WORKASPACE' ) );
#156 = VERTEX_POINT ( 'NONE', #178 ) ;
#157 = ADVANCED_FACE ( 'NONE', ( #728 ), #699, .F. ) ;
#158 = LOCAL_TIME ( 9, 11, 55.00000000000000000, #1085 ) ;
#159 = CARTESIAN_POINT ( 'NONE',  ( 1.020000000000000462, -2.200000000000000622, 15.34999999999999964 ) ) ;
#160 = ORIENTED_EDGE ( 'NONE', *, *, #371, .T. ) ;
#161 = FACE_OUTER_BOUND ( 'NONE', #612, .T. ) ;
#162 = EDGE_CURVE ( 'NONE', #881, #1045, #649, .T. ) ;
#163 = CARTESIAN_POINT ( 'NONE',  ( 6.600000000000001421, -2.200000000000000622, 15.34999999999999964 ) ) ;
#164 = ORIENTED_EDGE ( 'NONE', *, *, #467, .F. ) ;
#165 = VECTOR ( 'NONE', #1265, 1000.000000000000000 ) ;
#166 = LINE ( 'NONE', #1345, #1092 ) ;
#167 = CARTESIAN_POINT ( 'NONE',  ( -10.39441403892320892, -4.644414583420330978, 10.95000000000000107 ) ) ;
#168 = ORIENTED_EDGE ( 'NONE', *, *, #1058, .F. ) ;
#169 = DIRECTION ( 'NONE',  ( 1.000000000000000000, 0.0000000000000000000, 0.0000000000000000000 ) ) ;
#170 = EDGE_CURVE ( 'NONE', #788, #553, #1105, .T. ) ;
#171 = VERTEX_POINT ( 'NONE', #436 ) ;
#172 = ORIENTED_EDGE ( 'NONE', *, *, #910, .F. ) ;
#173 = CC_DESIGN_APPROVAL ( #959, ( #126 ) ) ;
#174 = DIRECTION ( 'NONE',  ( 0.0000000000000000000, 1.000000000000000000, 0.0000000000000000000 ) ) ;
#175 = EDGE_LOOP ( 'NONE', ( #215, #808, #1155, #914 ) ) ;
#176 = VECTOR ( 'NONE', #66, 1000.000000000000000 ) ;
#177 = FACE_OUTER_BOUND ( 'NONE', #1015, .T. ) ;
#178 = CARTESIAN_POINT ( 'NONE',  ( -6.599999999999999645, -1.950000000000001288, 10.94999999999999929 ) ) ;
#179 = EDGE_CURVE ( 'NONE', #1101, #448, #403, .T. ) ;
#180 = LINE ( 'NONE', #656, #1223 ) ;
#181 = PLANE ( 'NONE',  #545 ) ;
#182 = APPROVAL_STATUS ( 'not_yet_approved' ) ;
#183 = ORIENTED_EDGE ( 'NONE', *, *, #516, .T. ) ;
#184 = CARTESIAN_POINT ( 'NONE',  ( 1.520000000000000906, -2.200000000000000622, 15.34999999999999964 ) ) ;
#185 = ORIENTED_EDGE ( 'NONE', *, *, #238, .T. ) ;
#186 = CARTESIAN_POINT ( 'NONE',  ( -10.74151380455178817, -4.491513804551789946, 2.117582368135750848E-16 ) ) ;
#187 = AXIS2_PLACEMENT_3D ( 'NONE', #223, #12, #328 ) ;
#188 = LINE ( 'NONE', #477, #461 ) ;
#189 = ORIENTED_EDGE ( 'NONE', *, *, #1326, .T. ) ;
#190 = PLANE ( 'NONE',  #1050 ) ;
#191 = ORIENTED_EDGE ( 'NONE', *, *, #1225, .T. ) ;
#192 = FACE_OUTER_BOUND ( 'NONE', #629, .T. ) ;
#193 = VECTOR ( 'NONE', #843, 1000.000000000000000 ) ;
#194 = EDGE_CURVE ( 'NONE', #514, #1269, #1288, .T. ) ;
#195 = CARTESIAN_POINT ( 'NONE',  ( 8.640000000000002345, -1.950000000000001288, 15.34999999999999964 ) ) ;
#196 = EDGE_LOOP ( 'NONE', ( #966, #472, #502, #160 ) ) ;
#197 = CARTESIAN_POINT ( 'NONE',  ( -8.640000000000000568, -2.200000000000000622, 15.34999999999999964 ) ) ;
#198 = VERTEX_POINT ( 'NONE', #1154 ) ;
#199 = VERTEX_POINT ( 'NONE', #429 ) ;
#200 = EDGE_CURVE ( 'NONE', #618, #478, #73, .T. ) ;
#201 = CARTESIAN_POINT ( 'NONE',  ( 10.74151380455179350, -4.491513804551789057, 6.270476337552762321E-17 ) ) ;
#202 = APPROVAL_DATE_TIME ( #557, #486 ) ;
#203 = ORIENTED_EDGE ( 'NONE', *, *, #706, .T. ) ;
#204 = LINE ( 'NONE', #906, #621 ) ;
#205 = LINE ( 'NONE', #143, #668 ) ;
#206 = ORIENTED_EDGE ( 'NONE', *, *, #1302, .F. ) ;
#207 = FACE_OUTER_BOUND ( 'NONE', #917, .T. ) ;
#208 = CARTESIAN_POINT ( 'NONE',  ( 8.640000000000002345, -2.200000000000000622, 10.94999999999999929 ) ) ;
#209 = ORIENTED_EDGE ( 'NONE', *, *, #803, .T. ) ;
#210 = CARTESIAN_POINT ( 'NONE',  ( -9.140000000000000568, -2.200000000000000622, 15.34999999999999964 ) ) ;
#211 = EDGE_CURVE ( 'NONE', #1167, #949, #1144, .T. ) ;
#212 = CARTESIAN_POINT ( 'NONE',  ( 6.100000000000001421, -2.200000000000000622, 15.34999999999999964 ) ) ;
#213 = ORIENTED_EDGE ( 'NONE', *, *, #925, .T. ) ;
#214 = CARTESIAN_POINT ( 'NONE',  ( 8.640000000000002345, -1.950000000000001288, 15.34999999999999964 ) ) ;
#215 = ORIENTED_EDGE ( 'NONE', *, *, #298, .T. ) ;
#216 = DIRECTION ( 'NONE',  ( 1.000000000000000000, 0.0000000000000000000, 0.0000000000000000000 ) ) ;
#217 = ORIENTED_EDGE ( 'NONE', *, *, #1083, .T. ) ;
#218 = DIRECTION ( 'NONE',  ( -1.000000000000000000, -0.0000000000000000000, -0.0000000000000000000 ) ) ;
#219 = PLANE ( 'NONE',  #1179 ) ;
#220 = EDGE_CURVE ( 'NONE', #332, #198, #791, .T. ) ;
#221 = DIRECTION ( 'NONE',  ( 0.0000000000000000000, 0.0000000000000000000, 1.000000000000000000 ) ) ;
#222 = VECTOR ( 'NONE', #268, 1000.000000000000000 ) ;
#223 = CARTESIAN_POINT ( 'NONE',  ( 0.0000000000000000000, 0.0000000000000000000, 15.34999999999999964 ) ) ;
#224 = CARTESIAN_POINT ( 'NONE',  ( 1.020000000000000462, -2.200000000000000622, 10.94999999999999929 ) ) ;
#225 = ORIENTED_EDGE ( 'NONE', *, *, #726, .T. ) ;
#226 = VECTOR ( 'NONE', #1044, 1000.000000000000000 ) ;
#227 = VECTOR ( 'NONE', #1166, 1000.000000000000000 ) ;
#228 = EDGE_CURVE ( 'NONE', #373, #385, #522, .T. ) ;
#229 = CARTESIAN_POINT ( 'NONE',  ( 4.060000000000001386, -1.950000000000001288, 15.34999999999999964 ) ) ;
#230 = DIRECTION ( 'NONE',  ( -1.000000000000000000, -0.0000000000000000000, -0.0000000000000000000 ) ) ;
#231 = ORIENTED_EDGE ( 'NONE', *, *, #364, .F. ) ;
#232 = AXIS2_PLACEMENT_3D ( 'NONE', #1185, #864, #571 ) ;
#233 = CARTESIAN_POINT ( 'NONE',  ( -4.059999999999999609, -1.950000000000001288, 10.94999999999999929 ) ) ;
#234 = APPLICATION_PROTOCOL_DEFINITION ( 'international standard', 'config_control_design', 1994, #852 ) ;
#235 = DIRECTION ( 'NONE',  ( 0.0000000000000000000, 1.000000000000000000, 0.0000000000000000000 ) ) ;
#236 = COORDINATED_UNIVERSAL_TIME_OFFSET ( 8, 0, .AHEAD. ) ;
#237 = PLANE ( 'NONE',  #475 ) ;
#238 = EDGE_CURVE ( 'NONE', #543, #618, #240, .T. ) ;
#239 = ORIENTED_EDGE ( 'NONE', *, *, #444, .T. ) ;
#240 = LINE ( 'NONE', #1157, #314 ) ;
#241 = VECTOR ( 'NONE', #590, 1000.000000000000000 ) ;
#242 = CARTESIAN_POINT ( 'NONE',  ( -4.059999999999999609, -1.950000000000001288, 15.34999999999999964 ) ) ;
#243 = LINE ( 'NONE', #195, #1323 ) ;
#244 = CARTESIAN_POINT ( 'NONE',  ( 1.020000000000000462, -1.950000000000001288, 10.94999999999999929 ) ) ;
#245 = CARTESIAN_POINT ( 'NONE',  ( -4.059999999999999609, -2.200000000000000622, 15.34999999999999964 ) ) ;
#246 = FACE_OUTER_BOUND ( 'NONE', #1198, .T. ) ;
#247 = CARTESIAN_POINT ( 'NONE',  ( 10.90000000000000036, -4.491529253150700285, 0.001106352494397140097 ) ) ;
#248 = ADVANCED_FACE ( 'NONE', ( #41 ), #734, .F. ) ;
#249 = DIRECTION ( 'NONE',  ( 1.000000000000000000, 0.0000000000000000000, 0.0000000000000000000 ) ) ;
#250 = EDGE_CURVE ( 'NONE', #1260, #1315, #683, .T. ) ;
#251 = PLANE ( 'NONE',  #232 ) ;
#252 = ORIENTED_EDGE ( 'NONE', *, *, #833, .F. ) ;
#253 = MECHANICAL_CONTEXT ( 'NONE', #869, 'mechanical' ) ;
#254 = DIRECTION ( 'NONE',  ( 1.000000000000000000, 0.0000000000000000000, -0.0000000000000000000 ) ) ;
#255 = ORIENTED_EDGE ( 'NONE', *, *, #36, .F. ) ;
#256 = ADVANCED_FACE ( 'NONE', ( #355 ), #740, .T. ) ;
#257 = PERSON_AND_ORGANIZATION ( #1140, #933 ) ;
#258 = CARTESIAN_POINT ( 'NONE',  ( 10.39441403892320892, -4.644414583420329201, 10.95000000000000107 ) ) ;
#259 = VECTOR ( 'NONE', #587, 1000.000000000000114 ) ;
#260 = CARTESIAN_POINT ( 'NONE',  ( -6.599999999999999645, -2.200000000000000622, 15.34999999999999964 ) ) ;
#261 = VECTOR ( 'NONE', #500, 1000.000000000000000 ) ;
#262 = AXIS2_PLACEMENT_3D ( 'NONE', #779, #279, #998 ) ;
#263 = VERTEX_POINT ( 'NONE', #934 ) ;
#264 = LINE ( 'NONE', #955, #703 ) ;
#265 = LINE ( 'NONE', #657, #1310 ) ;
#266 = CARTESIAN_POINT ( 'NONE',  ( -9.140000000000000568, -2.200000000000000622, 10.94999999999999929 ) ) ;
#267 = ORIENTED_EDGE ( 'NONE', *, *, #491, .F. ) ;
#268 = DIRECTION ( 'NONE',  ( -0.0000000000000000000, -0.0000000000000000000, -1.000000000000000000 ) ) ;
#269 = DIRECTION ( 'NONE',  ( -0.0000000000000000000, -1.000000000000000000, -0.0000000000000000000 ) ) ;
#270 = CARTESIAN_POINT ( 'NONE',  ( 10.40000000000000213, -4.650000000000000355, 11.35000000000000142 ) ) ;
#271 = VERTEX_POINT ( 'NONE', #602 ) ;
#272 = CARTESIAN_POINT ( 'NONE',  ( 4.060000000000001386, -1.950000000000001288, 15.34999999999999964 ) ) ;
#273 = ORIENTED_EDGE ( 'NONE', *, *, #689, .F. ) ;
#274 = FACE_OUTER_BOUND ( 'NONE', #81, .T. ) ;
#275 = LINE ( 'NONE', #1191, #1014 ) ;
#276 = EDGE_CURVE ( 'NONE', #385, #732, #1249, .T. ) ;
#277 = VECTOR ( 'NONE', #965, 1000.000000000000000 ) ;
#278 = FACE_OUTER_BOUND ( 'NONE', #1193, .T. ) ;
#279 = DIRECTION ( 'NONE',  ( 0.0000000000000000000, -1.000000000000000000, 0.0000000000000000000 ) ) ;
#280 = CARTESIAN_POINT ( 'NONE',  ( -6.599999999999999645, -1.950000000000001288, 15.34999999999999964 ) ) ;
#281 = ORIENTED_EDGE ( 'NONE', *, *, #706, .F. ) ;
#282 = CARTESIAN_POINT ( 'NONE',  ( 0.0000000000000000000, 0.0000000000000000000, 15.34999999999999964 ) ) ;
#283 = DIRECTION ( 'NONE',  ( 0.0000000000000000000, 0.0000000000000000000, 1.000000000000000000 ) ) ;
#284 = EDGE_LOOP ( 'NONE', ( #1024, #360, #721, #217 ) ) ;
#285 = CARTESIAN_POINT ( 'NONE',  ( 9.140000000000002345, -1.950000000000001288, 15.34999999999999964 ) ) ;
#286 = APPROVAL_ROLE ( '' ) ;
#287 = DIRECTION ( 'NONE',  ( -1.000000000000000000, 0.0000000000000000000, 0.0000000000000000000 ) ) ;
#288 = ORIENTED_EDGE ( 'NONE', *, *, #1342, .T. ) ;
#289 = LINE ( 'NONE', #798, #539 ) ;
#290 = VECTOR ( 'NONE', #885, 1000.000000000000000 ) ;
#291 = CARTESIAN_POINT ( 'NONE',  ( 4.060000000000001386, -1.950000000000001288, 10.94999999999999929 ) ) ;
#292 = EDGE_LOOP ( 'NONE', ( #1253, #684, #713, #613 ) ) ;
#293 = VECTOR ( 'NONE', #1294, 1000.000000000000000 ) ;
#294 = VECTOR ( 'NONE', #299, 1000.000000000000000 ) ;
#295 = EDGE_LOOP ( 'NONE', ( #397, #742, #1189, #1127 ) ) ;
#296 = ORIENTED_EDGE ( 'NONE', *, *, #1147, .T. ) ;
#297 = DIRECTION ( 'NONE',  ( 0.0000000000000000000, 1.000000000000000000, 0.0000000000000000000 ) ) ;
#298 = EDGE_CURVE ( 'NONE', #1072, #519, #872, .T. ) ;
#299 = DIRECTION ( 'NONE',  ( -0.0000000000000000000, -0.0000000000000000000, -1.000000000000000000 ) ) ;
#300 = AXIS2_PLACEMENT_3D ( 'NONE', #970, #980, #351 ) ;
#301 = ORIENTED_EDGE ( 'NONE', *, *, #1348, .F. ) ;
#302 = CARTESIAN_POINT ( 'NONE',  ( 0.0000000000000000000, 4.650000000000000355, 11.35000000000000142 ) ) ;
#303 = LINE ( 'NONE', #1339, #948 ) ;
#304 = VECTOR ( 'NONE', #1325, 1000.000000000000000 ) ;
#305 = LINE ( 'NONE', #5, #227 ) ;
#306 = EDGE_CURVE ( 'NONE', #101, #1072, #289, .T. ) ;
#307 = CARTESIAN_POINT ( 'NONE',  ( 10.90000000000000036, -4.649999999999999467, 11.35000000000000142 ) ) ;
#308 = ORIENTED_EDGE ( 'NONE', *, *, #640, .F. ) ;
#309 = PLANE ( 'NONE',  #1335 ) ;
#310 = EDGE_CURVE ( 'NONE', #559, #127, #1, .T. ) ;
#311 = DIRECTION ( 'NONE',  ( 0.0000000000000000000, 0.0000000000000000000, 1.000000000000000000 ) ) ;
#312 = COORDINATED_UNIVERSAL_TIME_OFFSET ( 8, 0, .AHEAD. ) ;
#313 = ORIENTED_EDGE ( 'NONE', *, *, #982, .T. ) ;
#314 = VECTOR ( 'NONE', #942, 1000.000000000000000 ) ;
#315 = LINE ( 'NONE', #594, #806 ) ;
#316 = DIRECTION ( 'NONE',  ( 0.0000000000000000000, 1.000000000000000000, 0.0000000000000000000 ) ) ;
#317 = PLANE ( 'NONE',  #508 ) ;
#318 = ORIENTED_EDGE ( 'NONE', *, *, #94, .T. ) ;
#319 = LINE ( 'NONE', #416, #776 ) ;
#320 = CARTESIAN_POINT ( 'NONE',  ( -8.640000000000000568, -2.200000000000000622, 15.34999999999999964 ) ) ;
#321 = ORIENTED_EDGE ( 'NONE', *, *, #1103, .F. ) ;
#322 = DIRECTION ( 'NONE',  ( -1.000000000000000000, 0.0000000000000000000, 0.0000000000000000000 ) ) ;
#323 = FACE_OUTER_BOUND ( 'NONE', #54, .T. ) ;
#324 = DIRECTION ( 'NONE',  ( 0.01396218033914430924, 0.01396081936177956395, 0.9998050575201772316 ) ) ;
#325 = DIRECTION ( 'NONE',  ( -0.0000000000000000000, -0.0000000000000000000, -1.000000000000000000 ) ) ;
#326 = EDGE_LOOP ( 'NONE', ( #1151, #715, #11, #801 ) ) ;
#327 = EDGE_LOOP ( 'NONE', ( #368, #956, #702, #670, #49, #904, #769, #812 ) ) ;
#328 = DIRECTION ( 'NONE',  ( -1.000000000000000000, 0.0000000000000000000, -0.0000000000000000000 ) ) ;
#329 = CARTESIAN_POINT ( 'NONE',  ( 1.020000000000000462, -2.200000000000000622, 10.94999999999999929 ) ) ;
#330 = DIRECTION ( 'NONE',  ( -0.0000000000000000000, -1.000000000000000000, -0.0000000000000000000 ) ) ;
#331 = DIRECTION ( 'NONE',  ( 0.0000000000000000000, 0.0000000000000000000, -1.000000000000000000 ) ) ;
#332 = VERTEX_POINT ( 'NONE', #990 ) ;
#333 = AXIS2_PLACEMENT_3D ( 'NONE', #603, #65, #794 ) ;
#334 = DIRECTION ( 'NONE',  ( -0.0000000000000000000, -0.0000000000000000000, -1.000000000000000000 ) ) ;
#335 = ORIENTED_EDGE ( 'NONE', *, *, #1296, .T. ) ;
#336 = PLANE ( 'NONE',  #764 ) ;
#337 = CC_DESIGN_DATE_AND_TIME_ASSIGNMENT ( #979, #1124, ( #409 ) ) ;
#338 = EDGE_LOOP ( 'NONE', ( #1331, #203, #1330, #273 ) ) ;
#339 = LINE ( 'NONE', #513, #1206 ) ;
#340 = DIRECTION ( 'NONE',  ( 0.0000000000000000000, -0.0000000000000000000, -1.000000000000000000 ) ) ;
#341 = ORIENTED_EDGE ( 'NONE', *, *, #660, .T. ) ;
#342 = LINE ( 'NONE', #641, #1046 ) ;
#343 = DIRECTION ( 'NONE',  ( -0.0000000000000000000, -1.000000000000000000, -0.0000000000000000000 ) ) ;
#344 = ADVANCED_FACE ( 'NONE', ( #578 ), #1108, .F. ) ;
#345 = EDGE_CURVE ( 'NONE', #1260, #528, #142, .T. ) ;
#346 = DIRECTION ( 'NONE',  ( -1.000000000000000000, 0.0000000000000000000, 0.0000000000000000000 ) ) ;
#347 = DIRECTION ( 'NONE',  ( 0.0000000000000000000, 0.0000000000000000000, -1.000000000000000000 ) ) ;
#348 = ADVANCED_FACE ( 'NONE', ( #433 ), #489, .F. ) ;
#349 = DIRECTION ( 'NONE',  ( -1.000000000000000000, -0.0000000000000000000, -0.0000000000000000000 ) ) ;
#350 = LOCAL_TIME ( 9, 11, 55.00000000000000000, #236 ) ;
#351 = DIRECTION ( 'NONE',  ( 0.0000000000000000000, 0.0000000000000000000, -1.000000000000000000 ) ) ;
#352 = CARTESIAN_POINT ( 'NONE',  ( -9.140000000000000568, -1.950000000000001288, 15.34999999999999964 ) ) ;
#353 = AXIS2_PLACEMENT_3D ( 'NONE', #184, #287, #909 ) ;
#354 = VERTEX_POINT ( 'NONE', #692 ) ;
#355 = FACE_OUTER_BOUND ( 'NONE', #175, .T. ) ;
#356 = FACE_OUTER_BOUND ( 'NONE', #781, .T. ) ;
#357 = APPLICATION_PROTOCOL_DEFINITION ( 'international standard', 'config_control_design', 1994, #869 ) ;
#358 = ADVANCED_FACE ( 'NONE', ( #103 ), #380, .F. ) ;
#359 = CARTESIAN_POINT ( 'NONE',  ( -6.599999999999999645, -2.200000000000000622, 15.34999999999999964 ) ) ;
#360 = ORIENTED_EDGE ( 'NONE', *, *, #735, .T. ) ;
#361 = VECTOR ( 'NONE', #751, 1000.000000000000000 ) ;
#362 = EDGE_LOOP ( 'NONE', ( #84, #1341, #991, #752 ) ) ;
#363 = DIRECTION ( 'NONE',  ( -0.0000000000000000000, -0.0000000000000000000, -1.000000000000000000 ) ) ;
#364 = EDGE_CURVE ( 'NONE', #935, #1016, #1306, .T. ) ;
#365 = ORIENTED_EDGE ( 'NONE', *, *, #162, .T. ) ;
#366 = DIRECTION ( 'NONE',  ( -0.01396081962705787195, 0.01396081962705787195, -0.9998050765177587396 ) ) ;
#367 = PLANE ( 'NONE',  #696 ) ;
#368 = ORIENTED_EDGE ( 'NONE', *, *, #306, .F. ) ;
#369 = ORIENTED_EDGE ( 'NONE', *, *, #954, .T. ) ;
#370 = DIRECTION ( 'NONE',  ( 1.000000000000000000, 0.0000000000000000000, 0.0000000000000000000 ) ) ;
#371 = EDGE_CURVE ( 'NONE', #1242, #563, #315, .T. ) ;
#372 = ORIENTED_EDGE ( 'NONE', *, *, #1279, .T. ) ;
#373 = VERTEX_POINT ( 'NONE', #1213 ) ;
#374 = AXIS2_PLACEMENT_3D ( 'NONE', #422, #832, #1148 ) ;
#375 = LINE ( 'NONE', #1298, #128 ) ;
#376 = LINE ( 'NONE', #669, #777 ) ;
#377 = CARTESIAN_POINT ( 'NONE',  ( 0.0000000000000000000, -4.491513804551789946, 0.0000000000000000000 ) ) ;
#378 = CARTESIAN_POINT ( 'NONE',  ( 10.74151380455180060, -5.852929625581609889E-16, 0.0000000000000000000 ) ) ;
#379 = EDGE_CURVE ( 'NONE', #1291, #1269, #476, .T. ) ;
#380 = PLANE ( 'NONE',  #262 ) ;
#381 = ORIENTED_EDGE ( 'NONE', *, *, #1074, .F. ) ;
#382 = DIRECTION ( 'NONE',  ( -0.01396218033914530324, 0.0000000000000000000, -0.9999025240093042388 ) ) ;
#383 = APPROVAL_PERSON_ORGANIZATION ( #1318, #959, #903 ) ;
#384 = PLANE ( 'NONE',  #896 ) ;
#385 = VERTEX_POINT ( 'NONE', #1314 ) ;
#386 = CARTESIAN_POINT ( 'NONE',  ( -6.099999999999999645, -2.200000000000000622, 15.34999999999999964 ) ) ;
#387 = FACE_OUTER_BOUND ( 'NONE', #1104, .T. ) ;
#388 = LINE ( 'NONE', #1100, #304 ) ;
#389 = EDGE_CURVE ( 'NONE', #1232, #1129, #388, .T. ) ;
#390 = VERTEX_POINT ( 'NONE', #883 ) ;
#391 = ORIENTED_EDGE ( 'NONE', *, *, #565, .T. ) ;
#392 = VECTOR ( 'NONE', #861, 1000.000000000000114 ) ;
#393 = DIRECTION ( 'NONE',  ( 0.0000000000000000000, -0.0000000000000000000, -1.000000000000000000 ) ) ;
#394 = EDGE_LOOP ( 'NONE', ( #335, #150, #1319, #1149 ) ) ;
#395 = ORIENTED_EDGE ( 'NONE', *, *, #650, .T. ) ;
#396 = DIRECTION ( 'NONE',  ( -1.000000000000000000, 0.0000000000000000000, 0.0000000000000000000 ) ) ;
#397 = ORIENTED_EDGE ( 'NONE', *, *, #1357, .T. ) ;
#398 = AXIS2_PLACEMENT_3D ( 'NONE', #1270, #1067, #340 ) ;
#399 = ORIENTED_EDGE ( 'NONE', *, *, #600, .T. ) ;
#400 = DIRECTION ( 'NONE',  ( 0.0000000000000000000, 0.0000000000000000000, 1.000000000000000000 ) ) ;
#401 = LINE ( 'NONE', #285, #222 ) ;
#402 = EDGE_LOOP ( 'NONE', ( #707, #90, #813, #1356 ) ) ;
#403 = LINE ( 'NONE', #320, #1351 ) ;
#404 = VERTEX_POINT ( 'NONE', #690 ) ;
#405 = EDGE_CURVE ( 'NONE', #851, #17, #1184, .T. ) ;
#406 = VECTOR ( 'NONE', #449, 1000.000000000000000 ) ;
#407 = CARTESIAN_POINT ( 'NONE',  ( -6.099999999999999645, -1.950000000000001288, 15.34999999999999964 ) ) ;
#408 = FACE_OUTER_BOUND ( 'NONE', #775, .T. ) ;
#409 = PRODUCT_DEFINITION ( 'UNKNOWN', '', #1107, #100 ) ;
#410 = ORIENTED_EDGE ( 'NONE', *, *, #565, .F. ) ;
#411 = CARTESIAN_POINT ( 'NONE',  ( -10.39441403892320004, -8.326672684688670109E-16, 10.94999999999999929 ) ) ;
#412 = EDGE_CURVE ( 'NONE', #519, #332, #188, .T. ) ;
#413 = ORIENTED_EDGE ( 'NONE', *, *, #484, .T. ) ;
#414 = DIRECTION ( 'NONE',  ( -1.000000000000000000, 0.0000000000000000000, -0.0000000000000000000 ) ) ;
#415 = APPROVAL_PERSON_ORGANIZATION ( #1215, #642, #286 ) ;
#416 = CARTESIAN_POINT ( 'NONE',  ( -10.74151380455180060, 4.491513804551787281, 3.006966962752766204E-17 ) ) ;
#417 = VERTEX_POINT ( 'NONE', #887 ) ;
#418 = CARTESIAN_POINT ( 'NONE',  ( -4.059999999999999609, -2.200000000000000622, 15.34999999999999964 ) ) ;
#419 = LINE ( 'NONE', #911, #59 ) ;
#420 = FACE_OUTER_BOUND ( 'NONE', #326, .T. ) ;
#421 = EDGE_LOOP ( 'NONE', ( #1230, #682, #804, #296 ) ) ;
#422 = CARTESIAN_POINT ( 'NONE',  ( -9.140000000000000568, -2.200000000000000622, 15.34999999999999964 ) ) ;
#423 = LINE ( 'NONE', #566, #361 ) ;
#424 = ORIENTED_EDGE ( 'NONE', *, *, #796, .F. ) ;
#425 = DIRECTION ( 'NONE',  ( -0.0000000000000000000, -0.0000000000000000000, -1.000000000000000000 ) ) ;
#426 = DIRECTION ( 'NONE',  ( -1.000000000000000000, 0.0000000000000000000, 0.0000000000000000000 ) ) ;
#427 = ORIENTED_EDGE ( 'NONE', *, *, #919, .F. ) ;
#428 = CARTESIAN_POINT ( 'NONE',  ( 0.0000000000000000000, 0.0000000000000000000, 15.34999999999999964 ) ) ;
#429 = CARTESIAN_POINT ( 'NONE',  ( 8.640000000000002345, -1.950000000000001288, 10.94999999999999929 ) ) ;
#430 = CARTESIAN_POINT ( 'NONE',  ( 3.560000000000000497, -2.200000000000000622, 10.94999999999999929 ) ) ;
#431 = EDGE_CURVE ( 'NONE', #788, #1064, #2, .T. ) ;
#432 = PLANE ( 'NONE',  #1263 ) ;
#433 = FACE_OUTER_BOUND ( 'NONE', #421, .T. ) ;
#434 = CARTESIAN_POINT ( 'NONE',  ( -3.559999999999999609, -1.950000000000001288, 15.34999999999999964 ) ) ;
#435 = AXIS2_PLACEMENT_3D ( 'NONE', #428, #1056, #754 ) ;
#436 = CARTESIAN_POINT ( 'NONE',  ( -6.099999999999999645, -1.950000000000001288, 10.94999999999999929 ) ) ;
#437 = FACE_OUTER_BOUND ( 'NONE', #907, .T. ) ;
#438 = DIRECTION ( 'NONE',  ( 1.000000000000000000, 0.0000000000000000000, -0.0000000000000000000 ) ) ;
#439 = VERTEX_POINT ( 'NONE', #1209 ) ;
#440 = VECTOR ( 'NONE', #218, 1000.000000000000000 ) ;
#441 = CARTESIAN_POINT ( 'NONE',  ( -9.140000000000000568, -1.950000000000001288, 15.34999999999999964 ) ) ;
#442 = ORIENTED_EDGE ( 'NONE', *, *, #211, .T. ) ;
#443 = VECTOR ( 'NONE', #736, 1000.000000000000000 ) ;
#444 = EDGE_CURVE ( 'NONE', #439, #553, #1268, .T. ) ;
#445 = DIRECTION ( 'NONE',  ( -0.0000000000000000000, -1.000000000000000000, -0.0000000000000000000 ) ) ;
#446 = LINE ( 'NONE', #456, #687 ) ;
#447 = DIRECTION ( 'NONE',  ( 1.000000000000000000, 0.0000000000000000000, 0.0000000000000000000 ) ) ;
#448 = VERTEX_POINT ( 'NONE', #1316 ) ;
#449 = DIRECTION ( 'NONE',  ( -0.0000000000000000000, -0.0000000000000000000, -1.000000000000000000 ) ) ;
#450 = ADVANCED_FACE ( 'NONE', ( #420 ), #181, .F. ) ;
#451 = CARTESIAN_POINT ( 'NONE',  ( 1.520000000000000906, -2.200000000000000622, 15.34999999999999964 ) ) ;
#452 = ORIENTED_EDGE ( 'NONE', *, *, #3, .F. ) ;
#453 = DIRECTION ( 'NONE',  ( 0.0000000000000000000, 0.0000000000000000000, 1.000000000000000000 ) ) ;
#454 = EDGE_CURVE ( 'NONE', #648, #1260, #494, .T. ) ;
#455 = CALENDAR_DATE ( 2020, 7, 4 ) ;
#456 = CARTESIAN_POINT ( 'NONE',  ( 1.520000000000000906, -2.200000000000000622, 10.94999999999999929 ) ) ;
#457 = ORIENTED_EDGE ( 'NONE', *, *, #1326, .F. ) ;
#458 = ADVANCED_FACE ( 'NONE', ( #356 ), #384, .F. ) ;
#459 = FACE_OUTER_BOUND ( 'NONE', #116, .T. ) ;
#460 = DIRECTION ( 'NONE',  ( 0.0000000000000000000, -0.0000000000000000000, 1.000000000000000000 ) ) ;
#461 = VECTOR ( 'NONE', #679, 1000.000000000000000 ) ;
#462 = ORIENTED_EDGE ( 'NONE', *, *, #720, .T. ) ;
#463 = VECTOR ( 'NONE', #1241, 1000.000000000000000 ) ;
#464 =( LENGTH_UNIT ( ) NAMED_UNIT ( * ) SI_UNIT ( .MILLI., .METRE. ) );
#465 = VERTEX_POINT ( 'NONE', #609 ) ;
#466 = PLANE ( 'NONE',  #300 ) ;
#467 = EDGE_CURVE ( 'NONE', #949, #732, #729, .T. ) ;
#468 = ADVANCED_FACE ( 'NONE', ( #177 ), #780, .F. ) ;
#469 = DIRECTION ( 'NONE',  ( 0.0000000000000000000, 0.01396218033914530324, -0.9999025240093042388 ) ) ;
#470 = ORIENTED_EDGE ( 'NONE', *, *, #1112, .T. ) ;
#471 = PLANE ( 'NONE',  #1271 ) ;
#472 = ORIENTED_EDGE ( 'NONE', *, *, #1171, .F. ) ;
#473 = CARTESIAN_POINT ( 'NONE',  ( -6.599999999999999645, -2.200000000000000622, 15.34999999999999964 ) ) ;
#474 = ORIENTED_EDGE ( 'NONE', *, *, #1147, .F. ) ;
#475 = AXIS2_PLACEMENT_3D ( 'NONE', #550, #346, #453 ) ;
#476 = LINE ( 'NONE', #1196, #1087 ) ;
#477 = CARTESIAN_POINT ( 'NONE',  ( -10.90000000000000036, 4.491513804551787281, 3.006966962752766204E-17 ) ) ;
#478 = VERTEX_POINT ( 'NONE', #879 ) ;
#479 = ORIENTED_EDGE ( 'NONE', *, *, #964, .T. ) ;
#480 = LINE ( 'NONE', #1258, #1273 ) ;
#481 = VECTOR ( 'NONE', #915, 1000.000000000000000 ) ;
#482 = DIRECTION ( 'NONE',  ( 0.0000000000000000000, 0.0000000000000000000, -1.000000000000000000 ) ) ;
#483 = APPROVAL_ROLE ( '' ) ;
#484 = EDGE_CURVE ( 'NONE', #1116, #153, #1043, .T. ) ;
#485 = ORIENTED_EDGE ( 'NONE', *, *, #26, .F. ) ;
#486 = APPROVAL ( #1220, 'UNSPECIFIED' ) ;
#487 = ORIENTED_EDGE ( 'NONE', *, *, #1029, .F. ) ;
#488 = ORIENTED_EDGE ( 'NONE', *, *, #454, .F. ) ;
#489 = PLANE ( 'NONE',  #922 ) ;
#490 = SHAPE_DEFINITION_REPRESENTATION ( #868, #654 ) ;
#491 = EDGE_CURVE ( 'NONE', #1064, #586, #275, .T. ) ;
#492 = ORIENTED_EDGE ( 'NONE', *, *, #1171, .T. ) ;
#493 = VECTOR ( 'NONE', #1128, 1000.000000000000000 ) ;
#494 = LINE ( 'NONE', #704, #1066 ) ;
#495 = CARTESIAN_POINT ( 'NONE',  ( 3.560000000000000497, -2.200000000000000622, 15.34999999999999964 ) ) ;
#496 = ORIENTED_EDGE ( 'NONE', *, *, #774, .F. ) ;
#497 = LINE ( 'NONE', #418, #1292 ) ;
#498 = DIRECTION ( 'NONE',  ( 0.9999025050061671749, 2.387343620297240122E-16, -0.01396354118380470528 ) ) ;
#499 = ORIENTED_EDGE ( 'NONE', *, *, #170, .T. ) ;
#500 = DIRECTION ( 'NONE',  ( -0.0000000000000000000, -0.0000000000000000000, -1.000000000000000000 ) ) ;
#501 = CARTESIAN_POINT ( 'NONE',  ( 6.100000000000001421, -2.200000000000000622, 15.34999999999999964 ) ) ;
#502 = ORIENTED_EDGE ( 'NONE', *, *, #1279, .F. ) ;
#503 = CARTESIAN_POINT ( 'NONE',  ( 6.100000000000001421, -1.950000000000001288, 15.34999999999999964 ) ) ;
#504 = ORIENTED_EDGE ( 'NONE', *, *, #824, .T. ) ;
#505 = VECTOR ( 'NONE', #989, 1000.000000000000000 ) ;
#506 = EDGE_CURVE ( 'NONE', #1343, #390, #1145, .T. ) ;
#507 = DIRECTION ( 'NONE',  ( 0.0000000000000000000, -1.000000000000000000, 0.0000000000000000000 ) ) ;
#508 = AXIS2_PLACEMENT_3D ( 'NONE', #647, #447, #958 ) ;
#509 = ORIENTED_EDGE ( 'NONE', *, *, #170, .F. ) ;
#510 = LINE ( 'NONE', #1042, #891 ) ;
#511 = LINE ( 'NONE', #434, #810 ) ;
#512 = SECURITY_CLASSIFICATION_LEVEL ( 'unclassified' ) ;
#513 = CARTESIAN_POINT ( 'NONE',  ( -10.90000000000000036, 4.644414583420327425, 10.95000000000000107 ) ) ;
#514 = VERTEX_POINT ( 'NONE', #1311 ) ;
#515 = ORIENTED_EDGE ( 'NONE', *, *, #1029, .T. ) ;
#516 = EDGE_CURVE ( 'NONE', #153, #543, #701, .T. ) ;
#517 = ORIENTED_EDGE ( 'NONE', *, *, #672, .F. ) ;
#518 = ORIENTED_EDGE ( 'NONE', *, *, #551, .T. ) ;
#519 = VERTEX_POINT ( 'NONE', #35 ) ;
#520 = CARTESIAN_POINT ( 'NONE',  ( 6.100000000000001421, -2.200000000000000622, 10.94999999999999929 ) ) ;
#521 = ORIENTED_EDGE ( 'NONE', *, *, #467, .T. ) ;
#522 = LINE ( 'NONE', #940, #1025 ) ;
#523 = LINE ( 'NONE', #863, #1289 ) ;
#524 = EDGE_CURVE ( 'NONE', #417, #1343, #205, .T. ) ;
#525 = EDGE_LOOP ( 'NONE', ( #172, #1122, #694, #301 ) ) ;
#526 = FACE_OUTER_BOUND ( 'NONE', #1068, .T. ) ;
#527 = CARTESIAN_POINT ( 'NONE',  ( -8.640000000000000568, -1.950000000000001288, 15.34999999999999964 ) ) ;
#528 = VERTEX_POINT ( 'NONE', #1082 ) ;
#529 = EDGE_CURVE ( 'NONE', #881, #1008, #523, .T. ) ;
#530 = DIRECTION ( 'NONE',  ( -0.0000000000000000000, -1.000000000000000000, -0.0000000000000000000 ) ) ;
#531 = ORIENTED_EDGE ( 'NONE', *, *, #154, .T. ) ;
#532 = DIRECTION ( 'NONE',  ( 0.0000000000000000000, -1.000000000000000000, -0.0000000000000000000 ) ) ;
#533 = CC_DESIGN_PERSON_AND_ORGANIZATION_ASSIGNMENT ( #257, #1229, ( #1107 ) ) ;
#534 = ORIENTED_EDGE ( 'NONE', *, *, #228, .F. ) ;
#535 = DIRECTION ( 'NONE',  ( 1.000000000000000000, 0.0000000000000000000, 0.0000000000000000000 ) ) ;
#536 = COORDINATED_UNIVERSAL_TIME_OFFSET ( 8, 0, .AHEAD. ) ;
#537 = CARTESIAN_POINT ( 'NONE',  ( -3.559999999999999609, -2.200000000000000622, 15.34999999999999964 ) ) ;
#538 = CARTESIAN_POINT ( 'NONE',  ( 6.100000000000001421, -2.200000000000000622, 10.94999999999999929 ) ) ;
#539 = VECTOR ( 'NONE', #366, 1000.000000000000114 ) ;
#540 = VECTOR ( 'NONE', #676, 1000.000000000000000 ) ;
#541 = CARTESIAN_POINT ( 'NONE',  ( 3.560000000000000497, -1.950000000000001288, 15.34999999999999964 ) ) ;
#542 = DIRECTION ( 'NONE',  ( 0.0000000000000000000, 0.01396218033914530324, 0.9999025240093042388 ) ) ;
#543 = VERTEX_POINT ( 'NONE', #260 ) ;
#544 = LINE ( 'NONE', #855, #406 ) ;
#545 = AXIS2_PLACEMENT_3D ( 'NONE', #1114, #1328, #393 ) ;
#546 = VECTOR ( 'NONE', #724, 1000.000000000000000 ) ;
#547 = DIRECTION ( 'NONE',  ( 0.0000000000000000000, 1.000000000000000000, 0.0000000000000000000 ) ) ;
#548 = ORIENTED_EDGE ( 'NONE', *, *, #250, .T. ) ;
#549 = VERTEX_POINT ( 'NONE', #570 ) ;
#550 = CARTESIAN_POINT ( 'NONE',  ( 9.140000000000002345, -2.200000000000000622, 15.34999999999999964 ) ) ;
#551 = EDGE_CURVE ( 'NONE', #783, #1232, #1352, .T. ) ;
#552 = CARTESIAN_POINT ( 'NONE',  ( 10.90000000000000036, 4.649999999999999467, 11.35000000000000320 ) ) ;
#553 = VERTEX_POINT ( 'NONE', #244 ) ;
#554 = CARTESIAN_POINT ( 'NONE',  ( -6.599999999999999645, -2.200000000000000622, 15.34999999999999964 ) ) ;
#555 = CC_DESIGN_PERSON_AND_ORGANIZATION_ASSIGNMENT ( #628, #709, ( #1107 ) ) ;
#556 = ADVANCED_FACE ( 'NONE', ( #901 ), #978, .F. ) ;
#557 = DATE_AND_TIME ( #831, #158 ) ;
#558 = CARTESIAN_POINT ( 'NONE',  ( 6.100000000000001421, -1.950000000000001288, 15.34999999999999964 ) ) ;
#559 = VERTEX_POINT ( 'NONE', #1175 ) ;
#560 = VECTOR ( 'NONE', #1041, 1000.000000000000000 ) ;
#561 = VECTOR ( 'NONE', #741, 1000.000000000000000 ) ;
#562 = DIRECTION ( 'NONE',  ( -1.000000000000000000, 0.0000000000000000000, -0.0000000000000000000 ) ) ;
#563 = VERTEX_POINT ( 'NONE', #1194 ) ;
#564 = LINE ( 'NONE', #302, #481 ) ;
#565 = EDGE_CURVE ( 'NONE', #1129, #1343, #1001, .T. ) ;
#566 = CARTESIAN_POINT ( 'NONE',  ( 1.520000000000000906, -2.200000000000000622, 15.34999999999999964 ) ) ;
#567 = ADVANCED_FACE ( 'NONE', ( #437 ), #575, .F. ) ;
#568 = AXIS2_PLACEMENT_3D ( 'NONE', #1136, #1131, #414 ) ;
#569 = CARTESIAN_POINT ( 'NONE',  ( 3.560000000000000497, -2.200000000000000622, 15.34999999999999964 ) ) ;
#570 = CARTESIAN_POINT ( 'NONE',  ( 3.560000000000000497, -1.950000000000001288, 15.34999999999999964 ) ) ;
#571 = DIRECTION ( 'NONE',  ( 0.0000000000000000000, -0.0000000000000000000, 1.000000000000000000 ) ) ;
#572 = ORIENTED_EDGE ( 'NONE', *, *, #200, .T. ) ;
#573 =( NAMED_UNIT ( * ) SI_UNIT ( $, .STERADIAN. ) SOLID_ANGLE_UNIT ( ) );
#574 = ADVANCED_FACE ( 'NONE', ( #712 ), #466, .F. ) ;
#575 = PLANE ( 'NONE',  #1062 ) ;
#576 = DIRECTION ( 'NONE',  ( 1.000000000000000000, 0.0000000000000000000, 0.0000000000000000000 ) ) ;
#577 = EDGE_LOOP ( 'NONE', ( #1027, #1226, #889, #902 ) ) ;
#578 = FACE_OUTER_BOUND ( 'NONE', #939, .T. ) ;
#579 = CARTESIAN_POINT ( 'NONE',  ( -9.140000000000000568, -1.950000000000001288, 10.94999999999999929 ) ) ;
#580 = LINE ( 'NONE', #266, #290 ) ;
#581 = PLANE ( 'NONE',  #634 ) ;
#582 = FACE_OUTER_BOUND ( 'NONE', #605, .T. ) ;
#583 = VECTOR ( 'NONE', #862, 1000.000000000000000 ) ;
#584 = DIRECTION ( 'NONE',  ( 0.0000000000000000000, 1.000000000000000000, 0.0000000000000000000 ) ) ;
#585 = EDGE_CURVE ( 'NONE', #1116, #171, #608, .T. ) ;
#586 = VERTEX_POINT ( 'NONE', #671 ) ;
#587 = DIRECTION ( 'NONE',  ( -0.01396218033914430924, 0.01396081936177956395, -0.9998050575201772316 ) ) ;
#588 = VERTEX_POINT ( 'NONE', #579 ) ;
#589 = ADVANCED_FACE ( 'NONE', ( #1322, #1026, #144, #1118, #773, #929, #1106, #1250 ), #367, .T. ) ;
#590 = DIRECTION ( 'NONE',  ( -1.000000000000000000, -0.0000000000000000000, -0.0000000000000000000 ) ) ;
#591 = CARTESIAN_POINT ( 'NONE',  ( 10.90000000000000036, -4.649999999999999467, 11.35000000000000142 ) ) ;
#592 = ORIENTED_EDGE ( 'NONE', *, *, #524, .F. ) ;
#593 = EDGE_CURVE ( 'NONE', #17, #271, #760, .T. ) ;
#594 = CARTESIAN_POINT ( 'NONE',  ( -3.559999999999999609, -2.200000000000000622, 15.34999999999999964 ) ) ;
#595 = ORIENTED_EDGE ( 'NONE', *, *, #379, .F. ) ;
#596 = LINE ( 'NONE', #386, #967 ) ;
#597 = VECTOR ( 'NONE', #8, 1000.000000000000000 ) ;
#598 = LINE ( 'NONE', #520, #1274 ) ;
#599 = DIRECTION ( 'NONE',  ( -0.0000000000000000000, 1.000000000000000000, 0.0000000000000000000 ) ) ;
#600 = EDGE_CURVE ( 'NONE', #771, #465, #580, .T. ) ;
#601 = EDGE_LOOP ( 'NONE', ( #239, #509, #474, #870 ) ) ;
#602 = CARTESIAN_POINT ( 'NONE',  ( 3.560000000000000497, -1.950000000000001288, 10.94999999999999929 ) ) ;
#603 = CARTESIAN_POINT ( 'NONE',  ( 6.100000000000001421, -2.200000000000000622, 15.34999999999999964 ) ) ;
#604 = EDGE_CURVE ( 'NONE', #1045, #373, #1337, .T. ) ;
#605 = EDGE_LOOP ( 'NONE', ( #107, #1217, #1299, #1197 ) ) ;
#606 = LINE ( 'NONE', #1119, #1000 ) ;
#607 = CC_DESIGN_SECURITY_CLASSIFICATION ( #126, ( #1107 ) ) ;
#608 = LINE ( 'NONE', #1095, #632 ) ;
#609 = CARTESIAN_POINT ( 'NONE',  ( -8.640000000000000568, -2.200000000000000622, 10.94999999999999929 ) ) ;
#610 = FACE_OUTER_BOUND ( 'NONE', #996, .T. ) ;
#611 = ORIENTED_EDGE ( 'NONE', *, *, #220, .F. ) ;
#612 = EDGE_LOOP ( 'NONE', ( #518, #856, #209, #1126 ) ) ;
#613 = ORIENTED_EDGE ( 'NONE', *, *, #895, .T. ) ;
#614 = CARTESIAN_POINT ( 'NONE',  ( 8.640000000000002345, -2.200000000000000622, 15.34999999999999964 ) ) ;
#615 = DATE_TIME_ROLE ( 'classification_date' ) ;
#616 = PLANE ( 'NONE',  #353 ) ;
#617 = EDGE_CURVE ( 'NONE', #877, #559, #74, .T. ) ;
#618 = VERTEX_POINT ( 'NONE', #993 ) ;
#619 = DIRECTION ( 'NONE',  ( 1.000000000000000000, 0.0000000000000000000, 0.0000000000000000000 ) ) ;
#620 = CARTESIAN_POINT ( 'NONE',  ( 4.060000000000001386, -2.200000000000000622, 15.34999999999999964 ) ) ;
#621 = VECTOR ( 'NONE', #297, 1000.000000000000000 ) ;
#622 = ORIENTED_EDGE ( 'NONE', *, *, #672, .T. ) ;
#623 = LINE ( 'NONE', #329, #165 ) ;
#624 = FACE_OUTER_BOUND ( 'NONE', #1006, .T. ) ;
#625 = EDGE_CURVE ( 'NONE', #198, #1072, #120, .T. ) ;
#626 = AXIS2_PLACEMENT_3D ( 'NONE', #1018, #1261, #963 ) ;
#627 = CARTESIAN_POINT ( 'NONE',  ( 0.0000000000000000000, -6.154744128037440034E-16, 11.35000000000000142 ) ) ;
#628 = PERSON_AND_ORGANIZATION ( #1140, #933 ) ;
#629 = EDGE_LOOP ( 'NONE', ( #399, #1303, #457, #118 ) ) ;
#630 = CARTESIAN_POINT ( 'NONE',  ( -6.599999999999999645, -2.200000000000000622, 10.94999999999999929 ) ) ;
#631 = FACE_OUTER_BOUND ( 'NONE', #1257, .T. ) ;
#632 = VECTOR ( 'NONE', #1183, 1000.000000000000000 ) ;
#633 = CARTESIAN_POINT ( 'NONE',  ( -9.140000000000000568, -2.200000000000000622, 10.94999999999999929 ) ) ;
#634 = AXIS2_PLACEMENT_3D ( 'NONE', #1111, #498, #894 ) ;
#635 = VERTEX_POINT ( 'NONE', #786 ) ;
#636 = LINE ( 'NONE', #953, #1121 ) ;
#637 = DIRECTION ( 'NONE',  ( -0.0000000000000000000, -1.000000000000000000, -0.0000000000000000000 ) ) ;
#638 = CARTESIAN_POINT ( 'NONE',  ( -3.559999999999999609, -2.200000000000000622, 15.34999999999999964 ) ) ;
#639 = ORIENTED_EDGE ( 'NONE', *, *, #865, .T. ) ;
#640 = EDGE_CURVE ( 'NONE', #171, #156, #1202, .T. ) ;
#641 = CARTESIAN_POINT ( 'NONE',  ( 10.39441403892323734, 4.644414583420333642, 10.94999999999999929 ) ) ;
#642 = APPROVAL ( #86, 'UNSPECIFIED' ) ;
#643 = ORIENTED_EDGE ( 'NONE', *, *, #726, .F. ) ;
#644 = CARTESIAN_POINT ( 'NONE',  ( 6.100000000000001421, -1.950000000000001288, 15.34999999999999964 ) ) ;
#645 = DIRECTION ( 'NONE',  ( 1.000000000000000000, 0.0000000000000000000, 0.0000000000000000000 ) ) ;
#646 = CARTESIAN_POINT ( 'NONE',  ( -6.099999999999999645, -2.200000000000000622, 15.34999999999999964 ) ) ;
#647 = CARTESIAN_POINT ( 'NONE',  ( 6.100000000000001421, -2.200000000000000622, 15.34999999999999964 ) ) ;
#648 = VERTEX_POINT ( 'NONE', #167 ) ;
#649 = LINE ( 'NONE', #501, #1218 ) ;
#650 = EDGE_CURVE ( 'NONE', #1061, #390, #401, .T. ) ;
#651 = DIRECTION ( 'NONE',  ( 0.0000000000000000000, 0.0000000000000000000, -1.000000000000000000 ) ) ;
#652 = CARTESIAN_POINT ( 'NONE',  ( 4.060000000000001386, -2.200000000000000622, 10.94999999999999929 ) ) ;
#653 = FACE_OUTER_BOUND ( 'NONE', #577, .T. ) ;
#654 = ADVANCED_BREP_SHAPE_REPRESENTATION ( 'TMR4', ( #18, #1086 ), #155 ) ;
#655 = LINE ( 'NONE', #1290, #93 ) ;
#656 = CARTESIAN_POINT ( 'NONE',  ( 3.560000000000000497, -2.200000000000000622, 10.94999999999999929 ) ) ;
#657 = CARTESIAN_POINT ( 'NONE',  ( -6.599999999999999645, -2.200000000000000622, 10.94999999999999929 ) ) ;
#658 = ADVANCED_FACE ( 'NONE', ( #1234 ), #432, .F. ) ;
#659 = DIRECTION ( 'NONE',  ( 0.0000000000000000000, 0.0000000000000000000, 1.000000000000000000 ) ) ;
#660 = EDGE_CURVE ( 'NONE', #1016, #851, #681, .T. ) ;
#661 = ORIENTED_EDGE ( 'NONE', *, *, #162, .F. ) ;
#662 = CARTESIAN_POINT ( 'NONE',  ( -10.40000000000000213, 4.649999999999999467, 11.35000000000000142 ) ) ;
#663 = CALENDAR_DATE ( 2020, 7, 4 ) ;
#664 = CARTESIAN_POINT ( 'NONE',  ( 9.140000000000002345, -2.200000000000000622, 10.94999999999999929 ) ) ;
#665 = DIRECTION ( 'NONE',  ( 1.000000000000000000, 0.0000000000000000000, 0.0000000000000000000 ) ) ;
#666 = ORIENTED_EDGE ( 'NONE', *, *, #26, .T. ) ;
#667 = LINE ( 'NONE', #280, #1065 ) ;
#668 = VECTOR ( 'NONE', #363, 1000.000000000000000 ) ;
#669 = CARTESIAN_POINT ( 'NONE',  ( -9.140000000000000568, -2.200000000000000622, 15.34999999999999964 ) ) ;
#670 = ORIENTED_EDGE ( 'NONE', *, *, #853, .T. ) ;
#671 = CARTESIAN_POINT ( 'NONE',  ( 1.520000000000000906, -2.200000000000000622, 15.34999999999999964 ) ) ;
#672 = EDGE_CURVE ( 'NONE', #1181, #354, #805, .T. ) ;
#673 = LINE ( 'NONE', #134, #392 ) ;
#674 = DIRECTION ( 'NONE',  ( 1.000000000000000000, 0.0000000000000000000, 0.0000000000000000000 ) ) ;
#675 = ADVANCED_FACE ( 'NONE', ( #610 ), #1038, .F. ) ;
#676 = DIRECTION ( 'NONE',  ( -1.000000000000000000, -0.0000000000000000000, -0.0000000000000000000 ) ) ;
#677 = ORIENTED_EDGE ( 'NONE', *, *, #121, .F. ) ;
#678 = ADVANCED_FACE ( 'NONE', ( #1338 ), #937, .T. ) ;
#679 = DIRECTION ( 'NONE',  ( -1.000000000000000000, 0.0000000000000000000, -0.0000000000000000000 ) ) ;
#680 = CARTESIAN_POINT ( 'NONE',  ( 0.0000000000000000000, 0.0000000000000000000, 15.34999999999999964 ) ) ;
#681 = LINE ( 'NONE', #122, #561 ) ;
#682 = ORIENTED_EDGE ( 'NONE', *, *, #491, .T. ) ;
#683 = LINE ( 'NONE', #1047, #1117 ) ;
#684 = ORIENTED_EDGE ( 'NONE', *, *, #925, .F. ) ;
#685 = VECTOR ( 'NONE', #1272, 1000.000000000000000 ) ;
#686 = CARTESIAN_POINT ( 'NONE',  ( 4.060000000000001386, -2.200000000000000622, 10.94999999999999929 ) ) ;
#687 = VECTOR ( 'NONE', #961, 1000.000000000000000 ) ;
#688 = DIRECTION ( 'NONE',  ( 1.000000000000000000, 0.0000000000000000000, -0.0000000000000000000 ) ) ;
#689 = EDGE_CURVE ( 'NONE', #101, #559, #905, .T. ) ;
#690 = CARTESIAN_POINT ( 'NONE',  ( 1.020000000000000462, -2.200000000000000622, 10.94999999999999929 ) ) ;
#691 = ORIENTED_EDGE ( 'NONE', *, *, #1225, .F. ) ;
#692 = CARTESIAN_POINT ( 'NONE',  ( -9.140000000000000568, -2.200000000000000622, 15.34999999999999964 ) ) ;
#693 = ORIENTED_EDGE ( 'NONE', *, *, #211, .F. ) ;
#694 = ORIENTED_EDGE ( 'NONE', *, *, #444, .F. ) ;
#695 = EDGE_CURVE ( 'NONE', #543, #75, #1208, .T. ) ;
#696 = AXIS2_PLACEMENT_3D ( 'NONE', #1089, #770, #254 ) ;
#697 = CARTESIAN_POINT ( 'NONE',  ( 6.100000000000001421, -1.950000000000001288, 10.94999999999999929 ) ) ;
#698 = VERTEX_POINT ( 'NONE', #1034 ) ;
#699 = PLANE ( 'NONE',  #826 ) ;
#700 = LINE ( 'NONE', #1344, #493 ) ;
#701 = LINE ( 'NONE', #359, #1219 ) ;
#702 = ORIENTED_EDGE ( 'NONE', *, *, #310, .T. ) ;
#703 = VECTOR ( 'NONE', #334, 1000.000000000000000 ) ;
#704 = CARTESIAN_POINT ( 'NONE',  ( -10.39441403892323379, -4.644414583420333642, 10.94999999999999929 ) ) ;
#705 = DIRECTION ( 'NONE',  ( 0.0000000000000000000, -0.0000000000000000000, -1.000000000000000000 ) ) ;
#706 = EDGE_CURVE ( 'NONE', #797, #877, #987, .T. ) ;
#707 = ORIENTED_EDGE ( 'NONE', *, *, #1251, .T. ) ;
#708 = ORIENTED_EDGE ( 'NONE', *, *, #506, .F. ) ;
#709 = PERSON_AND_ORGANIZATION_ROLE ( 'creator' ) ;
#710 = EDGE_CURVE ( 'NONE', #635, #877, #342, .T. ) ;
#711 = DIRECTION ( 'NONE',  ( -0.0000000000000000000, -0.0000000000000000000, -1.000000000000000000 ) ) ;
#712 = FACE_OUTER_BOUND ( 'NONE', #295, .T. ) ;
#713 = ORIENTED_EDGE ( 'NONE', *, *, #1317, .F. ) ;
#714 = LINE ( 'NONE', #186, #1182 ) ;
#715 = ORIENTED_EDGE ( 'NONE', *, *, #133, .F. ) ;
#716 = VECTOR ( 'NONE', #230, 1000.000000000000000 ) ;
#717 = DIRECTION ( 'NONE',  ( -0.01396081962705787195, -0.01396081962705787195, 0.9998050765177587396 ) ) ;
#718 = DIRECTION ( 'NONE',  ( 0.0000000000000000000, -0.0000000000000000000, -1.000000000000000000 ) ) ;
#719 = FACE_OUTER_BOUND ( 'NONE', #327, .T. ) ;
#720 = EDGE_CURVE ( 'NONE', #75, #478, #7, .T. ) ;
#721 = ORIENTED_EDGE ( 'NONE', *, *, #79, .F. ) ;
#722 = CARTESIAN_POINT ( 'NONE',  ( 1.020000000000000462, -1.950000000000001288, 15.34999999999999964 ) ) ;
#723 = ORIENTED_EDGE ( 'NONE', *, *, #1251, .F. ) ;
#724 = DIRECTION ( 'NONE',  ( -1.000000000000000000, -0.0000000000000000000, -0.0000000000000000000 ) ) ;
#725 = PERSON_AND_ORGANIZATION ( #1140, #933 ) ;
#726 = EDGE_CURVE ( 'NONE', #332, #698, #319, .T. ) ;
#727 = ORIENTED_EDGE ( 'NONE', *, *, #98, .T. ) ;
#728 = FACE_OUTER_BOUND ( 'NONE', #983, .T. ) ;
#729 = LINE ( 'NONE', #503, #261 ) ;
#730 = DIRECTION ( 'NONE',  ( 0.0000000000000000000, -0.0000000000000000000, 1.000000000000000000 ) ) ;
#731 = VECTOR ( 'NONE', #757, 1000.000000000000000 ) ;
#732 = VERTEX_POINT ( 'NONE', #847 ) ;
#733 = CARTESIAN_POINT ( 'NONE',  ( 6.600000000000001421, -1.950000000000001288, 15.34999999999999964 ) ) ;
#734 = PLANE ( 'NONE',  #187 ) ;
#735 = EDGE_CURVE ( 'NONE', #127, #635, #44, .T. ) ;
#736 = DIRECTION ( 'NONE',  ( 1.000000000000000000, 0.0000000000000000000, 0.0000000000000000000 ) ) ;
#737 = ORIENTED_EDGE ( 'NONE', *, *, #179, .F. ) ;
#738 = DIRECTION ( 'NONE',  ( -1.000000000000000000, -0.0000000000000000000, -0.0000000000000000000 ) ) ;
#739 = ORIENTED_EDGE ( 'NONE', *, *, #875, .T. ) ;
#740 = PLANE ( 'NONE',  #15 ) ;
#741 = DIRECTION ( 'NONE',  ( 0.0000000000000000000, 1.000000000000000000, 0.0000000000000000000 ) ) ;
#742 = ORIENTED_EDGE ( 'NONE', *, *, #389, .F. ) ;
#743 = DATE_AND_TIME ( #1333, #1081 ) ;
#744 = DIRECTION ( 'NONE',  ( 0.0000000000000000000, 1.000000000000000000, 0.0000000000000000000 ) ) ;
#745 = DIRECTION ( 'NONE',  ( -0.0000000000000000000, -0.0000000000000000000, -1.000000000000000000 ) ) ;
#746 = VECTOR ( 'NONE', #249, 1000.000000000000000 ) ;
#747 = ORIENTED_EDGE ( 'NONE', *, *, #200, .F. ) ;
#748 = AXIS2_PLACEMENT_3D ( 'NONE', #197, #932, #97 ) ;
#749 = ORIENTED_EDGE ( 'NONE', *, *, #412, .F. ) ;
#750 = VECTOR ( 'NONE', #930, 1000.000000000000000 ) ;
#751 = DIRECTION ( 'NONE',  ( 0.0000000000000000000, 1.000000000000000000, 0.0000000000000000000 ) ) ;
#752 = ORIENTED_EDGE ( 'NONE', *, *, #785, .F. ) ;
#753 = CARTESIAN_POINT ( 'NONE',  ( 10.90000000000000036, -4.644414583420327425, 10.95000000000000107 ) ) ;
#754 = DIRECTION ( 'NONE',  ( -1.000000000000000000, 0.0000000000000000000, -0.0000000000000000000 ) ) ;
#755 = EDGE_LOOP ( 'NONE', ( #111, #1358, #88, #1113 ) ) ;
#756 = ADVANCED_FACE ( 'NONE', ( #61 ), #944, .F. ) ;
#757 = DIRECTION ( 'NONE',  ( 0.0000000000000000000, 1.000000000000000000, 0.0000000000000000000 ) ) ;
#758 = ORIENTED_EDGE ( 'NONE', *, *, #412, .T. ) ;
#759 = LINE ( 'NONE', #1222, #916 ) ;
#760 = LINE ( 'NONE', #1077, #540 ) ;
#761 = EDGE_CURVE ( 'NONE', #797, #101, #1150, .T. ) ;
#762 = DIRECTION ( 'NONE',  ( 1.000000000000000000, 0.0000000000000000000, 0.0000000000000000000 ) ) ;
#763 = LINE ( 'NONE', #1078, #277 ) ;
#764 = AXIS2_PLACEMENT_3D ( 'NONE', #835, #221, #113 ) ;
#765 = ORIENTED_EDGE ( 'NONE', *, *, #1296, .F. ) ;
#766 = ADVANCED_FACE ( 'NONE', ( #192 ), #1252, .F. ) ;
#767 = DIRECTION ( 'NONE',  ( 0.0000000000000000000, 0.0000000000000000000, -1.000000000000000000 ) ) ;
#768 = CARTESIAN_POINT ( 'NONE',  ( 9.140000000000002345, -2.200000000000000622, 10.94999999999999929 ) ) ;
#769 = ORIENTED_EDGE ( 'NONE', *, *, #94, .F. ) ;
#770 = DIRECTION ( 'NONE',  ( 0.0000000000000000000, 0.0000000000000000000, 1.000000000000000000 ) ) ;
#771 = VERTEX_POINT ( 'NONE', #633 ) ;
#772 = EDGE_CURVE ( 'NONE', #588, #771, #1091, .T. ) ;
#773 = FACE_BOUND ( 'NONE', #525, .T. ) ;
#774 = EDGE_CURVE ( 'NONE', #1346, #1291, #264, .T. ) ;
#775 = EDGE_LOOP ( 'NONE', ( #515, #479, #372, #848 ) ) ;
#776 = VECTOR ( 'NONE', #115, 1000.000000000000114 ) ;
#777 = VECTOR ( 'NONE', #576, 1000.000000000000000 ) ;
#778 = CC_DESIGN_PERSON_AND_ORGANIZATION_ASSIGNMENT ( #1347, #145, ( #409 ) ) ;
#779 = CARTESIAN_POINT ( 'NONE',  ( 8.640000000000002345, -1.950000000000001288, 15.34999999999999964 ) ) ;
#780 = PLANE ( 'NONE',  #626 ) ;
#781 = EDGE_LOOP ( 'NONE', ( #488, #1055, #1228, #1075 ) ) ;
#782 = DIRECTION ( 'NONE',  ( -0.0000000000000000000, -0.0000000000000000000, -1.000000000000000000 ) ) ;
#783 = VERTEX_POINT ( 'NONE', #214 ) ;
#784 = DIRECTION ( 'NONE',  ( -1.000000000000000000, -0.0000000000000000000, -0.0000000000000000000 ) ) ;
#785 = EDGE_CURVE ( 'NONE', #21, #17, #1168, .T. ) ;
#786 = CARTESIAN_POINT ( 'NONE',  ( 10.39441403892321958, 4.644414583420331866, 10.95000000000000107 ) ) ;
#787 = ORIENTED_EDGE ( 'NONE', *, *, #846, .F. ) ;
#788 = VERTEX_POINT ( 'NONE', #1275 ) ;
#789 = ORIENTED_EDGE ( 'NONE', *, *, #604, .F. ) ;
#790 = ORIENTED_EDGE ( 'NONE', *, *, #1112, .F. ) ;
#791 = LINE ( 'NONE', #1363, #124 ) ;
#792 = VECTOR ( 'NONE', #269, 1000.000000000000000 ) ;
#793 = PERSON_AND_ORGANIZATION ( #1140, #933 ) ;
#794 = DIRECTION ( 'NONE',  ( 0.0000000000000000000, -0.0000000000000000000, 1.000000000000000000 ) ) ;
#795 = LINE ( 'NONE', #108, #892 ) ;
#796 = EDGE_CURVE ( 'NONE', #58, #439, #544, .T. ) ;
#797 = VERTEX_POINT ( 'NONE', #552 ) ;
#798 = CARTESIAN_POINT ( 'NONE',  ( 10.89999999999999858, -4.650000000000000355, 11.35000000000000142 ) ) ;
#799 = CARTESIAN_POINT ( 'NONE',  ( -6.099999999999999645, -2.200000000000000622, 15.34999999999999964 ) ) ;
#800 = EDGE_LOOP ( 'NONE', ( #747, #765, #308, #1349 ) ) ;
#801 = ORIENTED_EDGE ( 'NONE', *, *, #585, .T. ) ;
#802 = DIRECTION ( 'NONE',  ( -1.000000000000000000, -0.0000000000000000000, -0.0000000000000000000 ) ) ;
#803 = EDGE_CURVE ( 'NONE', #417, #1061, #480, .T. ) ;
#804 = ORIENTED_EDGE ( 'NONE', *, *, #919, .T. ) ;
#805 = LINE ( 'NONE', #210, #819 ) ;
#806 = VECTOR ( 'NONE', #893, 1000.000000000000000 ) ;
#807 = PLANE ( 'NONE',  #814 ) ;
#808 = ORIENTED_EDGE ( 'NONE', *, *, #53, .F. ) ;
#809 = VECTOR ( 'NONE', #1163, 1000.000000000000000 ) ;
#810 = VECTOR ( 'NONE', #325, 1000.000000000000000 ) ;
#811 = ORIENTED_EDGE ( 'NONE', *, *, #98, .F. ) ;
#812 = ORIENTED_EDGE ( 'NONE', *, *, #625, .T. ) ;
#813 = ORIENTED_EDGE ( 'NONE', *, *, #982, .F. ) ;
#814 = AXIS2_PLACEMENT_3D ( 'NONE', #1125, #507, #1334 ) ;
#815 = ORIENTED_EDGE ( 'NONE', *, *, #389, .T. ) ;
#816 = CARTESIAN_POINT ( 'NONE',  ( 1.020000000000000462, -2.200000000000000622, 15.34999999999999964 ) ) ;
#817 = EDGE_LOOP ( 'NONE', ( #410, #123, #485, #708 ) ) ;
#818 = VECTOR ( 'NONE', #535, 1000.000000000000000 ) ;
#819 = VECTOR ( 'NONE', #330, 1000.000000000000000 ) ;
#820 = EDGE_LOOP ( 'NONE', ( #40, #1130, #77, #1132 ) ) ;
#821 = LINE ( 'NONE', #1254, #1069 ) ;
#822 = CARTESIAN_POINT ( 'NONE',  ( 9.140000000000002345, -1.950000000000001288, 15.34999999999999964 ) ) ;
#823 = LINE ( 'NONE', #527, #294 ) ;
#824 = EDGE_CURVE ( 'NONE', #912, #1291, #106, .T. ) ;
#825 = CARTESIAN_POINT ( 'NONE',  ( 6.600000000000001421, -2.200000000000000622, 15.34999999999999964 ) ) ;
#826 = AXIS2_PLACEMENT_3D ( 'NONE', #799, #898, #283 ) ;
#827 = EDGE_LOOP ( 'NONE', ( #884, #27, #723, #109 ) ) ;
#828 = PLANE ( 'NONE',  #68 ) ;
#829 = DIRECTION ( 'NONE',  ( -1.000000000000000000, -0.0000000000000000000, 0.0000000000000000000 ) ) ;
#830 = DIRECTION ( 'NONE',  ( 1.000000000000000000, 0.0000000000000000000, 0.0000000000000000000 ) ) ;
#831 = CALENDAR_DATE ( 2020, 7, 4 ) ;
#832 = DIRECTION ( 'NONE',  ( 0.0000000000000000000, 1.000000000000000000, 0.0000000000000000000 ) ) ;
#833 = EDGE_CURVE ( 'NONE', #1061, #783, #375, .T. ) ;
#834 = ORIENTED_EDGE ( 'NONE', *, *, #695, .F. ) ;
#835 = CARTESIAN_POINT ( 'NONE',  ( 0.0000000000000000000, -6.154744128037440034E-16, 11.35000000000000142 ) ) ;
#836 = VECTOR ( 'NONE', #104, 1000.000000000000000 ) ;
#837 = VECTOR ( 'NONE', #50, 1000.000000000000000 ) ;
#838 = DIRECTION ( 'NONE',  ( 0.0000000000000000000, 1.000000000000000000, 0.0000000000000000000 ) ) ;
#839 = CARTESIAN_POINT ( 'NONE',  ( 3.560000000000000497, -2.200000000000000622, 15.34999999999999964 ) ) ;
#840 = ORIENTED_EDGE ( 'NONE', *, *, #524, .T. ) ;
#841 = LINE ( 'NONE', #845, #293 ) ;
#842 = LINE ( 'NONE', #569, #583 ) ;
#843 = DIRECTION ( 'NONE',  ( -1.000000000000000000, -0.0000000000000000000, -0.0000000000000000000 ) ) ;
#844 = CARTESIAN_POINT ( 'NONE',  ( 1.020000000000000462, -1.950000000000001288, 15.34999999999999964 ) ) ;
#845 = CARTESIAN_POINT ( 'NONE',  ( -4.059999999999999609, -2.200000000000000622, 15.34999999999999964 ) ) ;
#846 = EDGE_CURVE ( 'NONE', #563, #912, #636, .T. ) ;
#847 = CARTESIAN_POINT ( 'NONE',  ( 6.100000000000001421, -1.950000000000001288, 10.94999999999999929 ) ) ;
#848 = ORIENTED_EDGE ( 'NONE', *, *, #1216, .T. ) ;
#849 = CC_DESIGN_PERSON_AND_ORGANIZATION_ASSIGNMENT ( #725, #1233, ( #126 ) ) ;
#850 = CARTESIAN_POINT ( 'NONE',  ( -9.140000000000000568, -2.200000000000000622, 10.94999999999999929 ) ) ;
#851 = VERTEX_POINT ( 'NONE', #229 ) ;
#852 = APPLICATION_CONTEXT ( 'configuration controlled 3d designs of mechanical parts and assemblies' ) ;
#853 = EDGE_CURVE ( 'NONE', #127, #648, #918, .T. ) ;
#854 = PLANE ( 'NONE',  #398 ) ;
#855 = CARTESIAN_POINT ( 'NONE',  ( 1.520000000000000906, -1.950000000000001288, 15.34999999999999964 ) ) ;
#856 = ORIENTED_EDGE ( 'NONE', *, *, #85, .T. ) ;
#857 = ORIENTED_EDGE ( 'NONE', *, *, #506, .T. ) ;
#858 = CARTESIAN_POINT ( 'NONE',  ( -3.559999999999999609, -2.200000000000000622, 15.34999999999999964 ) ) ;
#859 = FACE_OUTER_BOUND ( 'NONE', #1035, .T. ) ;
#860 = ADVANCED_FACE ( 'NONE', ( #653 ), #943, .F. ) ;
#861 = DIRECTION ( 'NONE',  ( 0.01396218033914430924, -0.01396081936177956395, -0.9998050575201772316 ) ) ;
#862 = DIRECTION ( 'NONE',  ( -0.0000000000000000000, -1.000000000000000000, -0.0000000000000000000 ) ) ;
#863 = CARTESIAN_POINT ( 'NONE',  ( 6.100000000000001421, -2.200000000000000622, 15.34999999999999964 ) ) ;
#864 = DIRECTION ( 'NONE',  ( 0.0000000000000000000, 1.000000000000000000, 0.0000000000000000000 ) ) ;
#865 = EDGE_CURVE ( 'NONE', #553, #404, #623, .T. ) ;
#866 = ADVANCED_FACE ( 'NONE', ( #1239 ), #139, .F. ) ;
#867 = PLANE ( 'NONE',  #45 ) ;
#868 = PRODUCT_DEFINITION_SHAPE ( 'NONE', 'NONE',  #409 ) ;
#869 = APPLICATION_CONTEXT ( 'configuration controlled 3d designs of mechanical parts and assemblies' ) ;
#870 = ORIENTED_EDGE ( 'NONE', *, *, #796, .T. ) ;
#871 = ADVANCED_FACE ( 'NONE', ( #859 ), #219, .F. ) ;
#872 = LINE ( 'NONE', #378, #1237 ) ;
#873 = CARTESIAN_POINT ( 'NONE',  ( 8.640000000000002345, -2.200000000000000622, 15.34999999999999964 ) ) ;
#874 = VECTOR ( 'NONE', #1098, 1000.000000000000000 ) ;
#875 = EDGE_CURVE ( 'NONE', #1167, #385, #510, .T. ) ;
#876 = DIRECTION ( 'NONE',  ( 0.0000000000000000000, 1.000000000000000000, 0.0000000000000000000 ) ) ;
#877 = VERTEX_POINT ( 'NONE', #13 ) ;
#878 = FACE_OUTER_BOUND ( 'NONE', #755, .T. ) ;
#879 = CARTESIAN_POINT ( 'NONE',  ( -6.099999999999999645, -2.200000000000000622, 10.94999999999999929 ) ) ;
#880 = ADVANCED_FACE ( 'NONE', ( #582 ), #854, .F. ) ;
#881 = VERTEX_POINT ( 'NONE', #119 ) ;
#882 = DIRECTION ( 'NONE',  ( 1.000000000000000000, 0.0000000000000000000, 0.0000000000000000000 ) ) ;
#883 = CARTESIAN_POINT ( 'NONE',  ( 9.140000000000002345, -1.950000000000001288, 10.94999999999999929 ) ) ;
#884 = ORIENTED_EDGE ( 'NONE', *, *, #600, .F. ) ;
#885 = DIRECTION ( 'NONE',  ( 1.000000000000000000, 0.0000000000000000000, 0.0000000000000000000 ) ) ;
#886 = ORIENTED_EDGE ( 'NONE', *, *, #710, .F. ) ;
#887 = CARTESIAN_POINT ( 'NONE',  ( 9.140000000000002345, -2.200000000000000622, 15.34999999999999964 ) ) ;
#888 = ORIENTED_EDGE ( 'NONE', *, *, #1134, .T. ) ;
#889 = ORIENTED_EDGE ( 'NONE', *, *, #154, .F. ) ;
#890 = VERTEX_POINT ( 'NONE', #430 ) ;
#891 = VECTOR ( 'NONE', #1158, 1000.000000000000000 ) ;
#892 = VECTOR ( 'NONE', #738, 1000.000000000000000 ) ;
#893 = DIRECTION ( 'NONE',  ( -0.0000000000000000000, -0.0000000000000000000, -1.000000000000000000 ) ) ;
#894 = DIRECTION ( 'NONE',  ( -0.01396354118380470528, 0.0000000000000000000, -0.9999025050061671749 ) ) ;
#895 = EDGE_CURVE ( 'NONE', #549, #271, #1187, .T. ) ;
#896 = AXIS2_PLACEMENT_3D ( 'NONE', #1224, #1332, #1009 ) ;
#897 = DIRECTION ( 'NONE',  ( 0.0000000000000000000, 0.0000000000000000000, -1.000000000000000000 ) ) ;
#898 = DIRECTION ( 'NONE',  ( -1.000000000000000000, 0.0000000000000000000, 0.0000000000000000000 ) ) ;
#899 = EDGE_LOOP ( 'NONE', ( #666, #168, #252, #395 ) ) ;
#900 = VECTOR ( 'NONE', #784, 1000.000000000000000 ) ;
#901 = FACE_OUTER_BOUND ( 'NONE', #1096, .T. ) ;
#902 = ORIENTED_EDGE ( 'NONE', *, *, #604, .T. ) ;
#903 = APPROVAL_ROLE ( '' ) ;
#904 = ORIENTED_EDGE ( 'NONE', *, *, #345, .T. ) ;
#905 = LINE ( 'NONE', #307, #685 ) ;
#906 = CARTESIAN_POINT ( 'NONE',  ( -6.099999999999999645, -2.200000000000000622, 10.94999999999999929 ) ) ;
#907 = EDGE_LOOP ( 'NONE', ( #572, #947, #834, #185 ) ) ;
#908 = EDGE_LOOP ( 'NONE', ( #611, #749, #938, #83 ) ) ;
#909 = DIRECTION ( 'NONE',  ( 0.0000000000000000000, 0.0000000000000000000, 1.000000000000000000 ) ) ;
#910 = EDGE_CURVE ( 'NONE', #404, #263, #1135, .T. ) ;
#911 = CARTESIAN_POINT ( 'NONE',  ( 8.640000000000002345, -1.950000000000001288, 10.94999999999999929 ) ) ;
#912 = VERTEX_POINT ( 'NONE', #1059 ) ;
#913 = VECTOR ( 'NONE', #1102, 1000.000000000000000 ) ;
#914 = ORIENTED_EDGE ( 'NONE', *, *, #306, .T. ) ;
#915 = DIRECTION ( 'NONE',  ( -1.000000000000000000, -0.0000000000000000000, 0.0000000000000000000 ) ) ;
#916 = VECTOR ( 'NONE', #876, 1000.000000000000000 ) ;
#917 = EDGE_LOOP ( 'NONE', ( #972, #321, #737, #1054 ) ) ;
#918 = LINE ( 'NONE', #753, #91 ) ;
#919 = EDGE_CURVE ( 'NONE', #586, #58, #423, .T. ) ;
#920 = LINE ( 'NONE', #538, #1071 ) ;
#921 = PLANE ( 'NONE',  #568 ) ;
#922 = AXIS2_PLACEMENT_3D ( 'NONE', #282, #897, #1093 ) ;
#923 = CARTESIAN_POINT ( 'NONE',  ( -10.39441403892321958, 4.644414583420329201, 10.95000000000000107 ) ) ;
#924 = ORIENTED_EDGE ( 'NONE', *, *, #803, .F. ) ;
#925 = EDGE_CURVE ( 'NONE', #935, #890, #1256, .T. ) ;
#926 = CARTESIAN_POINT ( 'NONE',  ( -9.140000000000000568, -1.950000000000001288, 15.34999999999999964 ) ) ;
#927 = ORIENTED_EDGE ( 'NONE', *, *, #1134, .F. ) ;
#928 = FACE_OUTER_BOUND ( 'NONE', #820, .T. ) ;
#929 = FACE_BOUND ( 'NONE', #362, .T. ) ;
#930 = DIRECTION ( 'NONE',  ( -0.0000000000000000000, 1.000000000000000000, 0.0000000000000000000 ) ) ;
#931 = ORIENTED_EDGE ( 'NONE', *, *, #310, .F. ) ;
#932 = DIRECTION ( 'NONE',  ( -1.000000000000000000, 0.0000000000000000000, 0.0000000000000000000 ) ) ;
#933 = ORGANIZATION ( 'UNSPECIFIED', 'UNSPECIFIED', '' ) ;
#934 = CARTESIAN_POINT ( 'NONE',  ( 1.520000000000000906, -2.200000000000000622, 10.94999999999999929 ) ) ;
#935 = VERTEX_POINT ( 'NONE', #1162 ) ;
#936 = EDGE_CURVE ( 'NONE', #271, #890, #180, .T. ) ;
#937 = PLANE ( 'NONE',  #112 ) ;
#938 = ORIENTED_EDGE ( 'NONE', *, *, #298, .F. ) ;
#939 = EDGE_LOOP ( 'NONE', ( #1022, #255, #517, #1313 ) ) ;
#940 = CARTESIAN_POINT ( 'NONE',  ( 6.600000000000001421, -2.200000000000000622, 10.94999999999999929 ) ) ;
#941 = CARTESIAN_POINT ( 'NONE',  ( -10.40000000000000036, -4.650000000000001243, 11.35000000000000142 ) ) ;
#942 = DIRECTION ( 'NONE',  ( -0.0000000000000000000, -0.0000000000000000000, -1.000000000000000000 ) ) ;
#943 = PLANE ( 'NONE',  #1255 ) ;
#944 = PLANE ( 'NONE',  #1160 ) ;
#945 = DIRECTION ( 'NONE',  ( 0.0000000000000000000, 0.0000000000000000000, -1.000000000000000000 ) ) ;
#946 = VECTOR ( 'NONE', #688, 1000.000000000000000 ) ;
#947 = ORIENTED_EDGE ( 'NONE', *, *, #720, .F. ) ;
#948 = VECTOR ( 'NONE', #711, 1000.000000000000000 ) ;
#949 = VERTEX_POINT ( 'NONE', #558 ) ;
#950 = VECTOR ( 'NONE', #645, 1000.000000000000000 ) ;
#951 = VECTOR ( 'NONE', #532, 1000.000000000000000 ) ;
#952 = CARTESIAN_POINT ( 'NONE',  ( 0.0000000000000000000, 0.0000000000000000000, 15.34999999999999964 ) ) ;
#953 = CARTESIAN_POINT ( 'NONE',  ( -3.559999999999999609, -2.200000000000000622, 10.94999999999999929 ) ) ;
#954 = EDGE_CURVE ( 'NONE', #1315, #1057, #673, .T. ) ;
#955 = CARTESIAN_POINT ( 'NONE',  ( -4.059999999999999609, -1.950000000000001288, 15.34999999999999964 ) ) ;
#956 = ORIENTED_EDGE ( 'NONE', *, *, #689, .T. ) ;
#957 = ADVANCED_FACE ( 'NONE', ( #76 ), #237, .F. ) ;
#958 = DIRECTION ( 'NONE',  ( 0.0000000000000000000, 0.0000000000000000000, -1.000000000000000000 ) ) ;
#959 = APPROVAL ( #182, 'UNSPECIFIED' ) ;
#960 = ORIENTED_EDGE ( 'NONE', *, *, #431, .F. ) ;
#961 = DIRECTION ( 'NONE',  ( 0.0000000000000000000, 1.000000000000000000, 0.0000000000000000000 ) ) ;
#962 = ADVANCED_FACE ( 'NONE', ( #878 ), #251, .F. ) ;
#963 = DIRECTION ( 'NONE',  ( 0.0000000000000000000, 0.0000000000000000000, -1.000000000000000000 ) ) ;
#964 = EDGE_CURVE ( 'NONE', #514, #1242, #841, .T. ) ;
#965 = DIRECTION ( 'NONE',  ( -1.000000000000000000, -0.0000000000000000000, -0.0000000000000000000 ) ) ;
#966 = ORIENTED_EDGE ( 'NONE', *, *, #846, .T. ) ;
#967 = VECTOR ( 'NONE', #174, 1000.000000000000000 ) ;
#968 = VECTOR ( 'NONE', #1203, 1000.000000000000000 ) ;
#969 = ORIENTED_EDGE ( 'NONE', *, *, #194, .F. ) ;
#970 = CARTESIAN_POINT ( 'NONE',  ( 8.640000000000002345, -2.200000000000000622, 15.34999999999999964 ) ) ;
#971 = VECTOR ( 'NONE', #105, 1000.000000000000000 ) ;
#972 = ORIENTED_EDGE ( 'NONE', *, *, #1176, .T. ) ;
#973 = PLANE ( 'NONE',  #1245 ) ;
#974 = ORIENTED_EDGE ( 'NONE', *, *, #1216, .F. ) ;
#975 = CARTESIAN_POINT ( 'NONE',  ( -6.599999999999999645, -1.950000000000001288, 15.34999999999999964 ) ) ;
#976 = ORIENTED_EDGE ( 'NONE', *, *, #1002, .T. ) ;
#977 = ADVANCED_FACE ( 'NONE', ( #526 ), #867, .F. ) ;
#978 = PLANE ( 'NONE',  #1033 ) ;
#979 = DATE_AND_TIME ( #663, #1286 ) ;
#980 = DIRECTION ( 'NONE',  ( 1.000000000000000000, 0.0000000000000000000, 0.0000000000000000000 ) ) ;
#981 = VECTOR ( 'NONE', #1305, 1000.000000000000000 ) ;
#982 = EDGE_CURVE ( 'NONE', #448, #1181, #763, .T. ) ;
#983 = EDGE_LOOP ( 'NONE', ( #1090, #1248, #677, #462 ) ) ;
#984 = ADVANCED_FACE ( 'NONE', ( #1028 ), #37, .F. ) ;
#985 = CC_DESIGN_PERSON_AND_ORGANIZATION_ASSIGNMENT ( #1004, #1023, ( #1031 ) ) ;
#986 = VERTEX_POINT ( 'NONE', #1172 ) ;
#987 = LINE ( 'NONE', #4, #1017 ) ;
#988 = LINE ( 'NONE', #212, #463 ) ;
#989 = DIRECTION ( 'NONE',  ( -0.0000000000000000000, -0.0000000000000000000, -1.000000000000000000 ) ) ;
#990 = CARTESIAN_POINT ( 'NONE',  ( -10.74151380455179705, 4.491513804551789057, 3.398719700857880111E-17 ) ) ;
#991 = ORIENTED_EDGE ( 'NONE', *, *, #593, .F. ) ;
#992 = EDGE_CURVE ( 'NONE', #1181, #588, #28, .T. ) ;
#993 = CARTESIAN_POINT ( 'NONE',  ( -6.599999999999999645, -2.200000000000000622, 10.94999999999999929 ) ) ;
#994 = DIRECTION ( 'NONE',  ( 0.0000000000000000000, 0.0000000000000000000, -1.000000000000000000 ) ) ;
#995 = ORIENTED_EDGE ( 'NONE', *, *, #824, .F. ) ;
#996 = EDGE_LOOP ( 'NONE', ( #976, #51, #231, #213 ) ) ;
#997 = APPROVAL_DATE_TIME ( #1362, #642 ) ;
#998 = DIRECTION ( 'NONE',  ( 0.0000000000000000000, -0.0000000000000000000, -1.000000000000000000 ) ) ;
#999 = EDGE_LOOP ( 'NONE', ( #470, #789, #661, #1212 ) ) ;
#1000 = VECTOR ( 'NONE', #1227, 1000.000000000000114 ) ;
#1001 = LINE ( 'NONE', #152, #746 ) ;
#1002 = EDGE_CURVE ( 'NONE', #890, #21, #821, .T. ) ;
#1003 = CLOSED_SHELL ( 'NONE', ( #589, #678, #1282, #756, #256, #458, #132, #1300, #1094, #1190, #344, #766, #1076, #984, #1195, #1178, #567, #157, #450, #556, #977, #962, #658, #32, #1084, #468, #871, #48, #1070, #348, #866, #675, #38, #880, #1293, #1205, #151, #860, #146, #248, #574, #138, #957, #358, #22 ) ) ;
#1004 = PERSON_AND_ORGANIZATION ( #1140, #933 ) ;
#1005 = LINE ( 'NONE', #722, #546 ) ;
#1006 = EDGE_LOOP ( 'NONE', ( #1143, #318, #1207, #643 ) ) ;
#1007 = DIRECTION ( 'NONE',  ( 0.0000000000000000000, 1.000000000000000000, 0.0000000000000000000 ) ) ;
#1008 = VERTEX_POINT ( 'NONE', #92 ) ;
#1009 = DIRECTION ( 'NONE',  ( -0.01396354118380470528, 0.0000000000000000000, 0.9999025050061671749 ) ) ;
#1010 = DIRECTION ( 'NONE',  ( 1.000000000000000000, -0.0000000000000000000, 0.0000000000000000000 ) ) ;
#1011 = ORIENTED_EDGE ( 'NONE', *, *, #179, .T. ) ;
#1012 = CALENDAR_DATE ( 2020, 7, 4 ) ;
#1013 = DIRECTION ( 'NONE',  ( -1.000000000000000000, -0.0000000000000000000, -0.0000000000000000000 ) ) ;
#1014 = VECTOR ( 'NONE', #882, 1000.000000000000000 ) ;
#1015 = EDGE_LOOP ( 'NONE', ( #639, #811, #960, #499 ) ) ;
#1016 = VERTEX_POINT ( 'NONE', #620 ) ;
#1017 = VECTOR ( 'NONE', #829, 1000.000000000000000 ) ;
#1018 = CARTESIAN_POINT ( 'NONE',  ( 1.020000000000000462, -2.200000000000000622, 15.34999999999999964 ) ) ;
#1019 = VECTOR ( 'NONE', #349, 1000.000000000000000 ) ;
#1020 = ORIENTED_EDGE ( 'NONE', *, *, #276, .F. ) ;
#1021 = DIRECTION ( 'NONE',  ( 1.000000000000000000, 0.0000000000000000000, 0.0000000000000000000 ) ) ;
#1022 = ORIENTED_EDGE ( 'NONE', *, *, #772, .T. ) ;
#1023 = PERSON_AND_ORGANIZATION_ROLE ( 'design_owner' ) ;
#1024 = ORIENTED_EDGE ( 'NONE', *, *, #853, .F. ) ;
#1025 = VECTOR ( 'NONE', #744, 1000.000000000000000 ) ;
#1026 = FACE_BOUND ( 'NONE', #827, .T. ) ;
#1027 = ORIENTED_EDGE ( 'NONE', *, *, #228, .T. ) ;
#1028 = FACE_OUTER_BOUND ( 'NONE', #402, .T. ) ;
#1029 = EDGE_CURVE ( 'NONE', #1346, #514, #497, .T. ) ;
#1030 = ORIENTED_EDGE ( 'NONE', *, *, #53, .T. ) ;
#1031 = PRODUCT ( 'TMR4', 'TMR4', '', ( #253 ) ) ;
#1032 = CARTESIAN_POINT ( 'NONE',  ( 1.020000000000000462, -1.950000000000001288, 15.34999999999999964 ) ) ;
#1033 = AXIS2_PLACEMENT_3D ( 'NONE', #680, #347, #1073 ) ;
#1034 = CARTESIAN_POINT ( 'NONE',  ( -10.90000000000000036, 4.649999999999999467, 11.35000000000000320 ) ) ;
#1035 = EDGE_LOOP ( 'NONE', ( #1099, #1267, #267, #727 ) ) ;
#1036 = DIRECTION ( 'NONE',  ( -0.0000000000000000000, -1.000000000000000000, -0.0000000000000000000 ) ) ;
#1037 = CARTESIAN_POINT ( 'NONE',  ( -4.059999999999999609, -2.200000000000000622, 15.34999999999999964 ) ) ;
#1038 = PLANE ( 'NONE',  #135 ) ;
#1039 = ORIENTED_EDGE ( 'NONE', *, *, #735, .F. ) ;
#1040 = AXIS2_PLACEMENT_3D ( 'NONE', #352, #1177, #1174 ) ;
#1041 = DIRECTION ( 'NONE',  ( -0.0000000000000000000, -0.0000000000000000000, -1.000000000000000000 ) ) ;
#1042 = CARTESIAN_POINT ( 'NONE',  ( 6.600000000000001421, -1.950000000000001288, 15.34999999999999964 ) ) ;
#1043 = LINE ( 'NONE', #1199, #241 ) ;
#1044 = DIRECTION ( 'NONE',  ( -0.0000000000000000000, -0.0000000000000000000, -1.000000000000000000 ) ) ;
#1045 = VERTEX_POINT ( 'NONE', #825 ) ;
#1046 = VECTOR ( 'NONE', #324, 1000.000000000000114 ) ;
#1047 = CARTESIAN_POINT ( 'NONE',  ( -10.40000000000000213, 4.650000000000000355, 11.35000000000000142 ) ) ;
#1048 = CARTESIAN_POINT ( 'NONE',  ( 1.020000000000000462, -2.200000000000000622, 15.34999999999999964 ) ) ;
#1049 = VECTOR ( 'NONE', #1173, 1000.000000000000000 ) ;
#1050 = AXIS2_PLACEMENT_3D ( 'NONE', #1231, #396, #400 ) ;
#1051 = DIRECTION ( 'NONE',  ( 0.0000000000000000000, 0.0000000000000000000, 1.000000000000000000 ) ) ;
#1052 = PLANE ( 'NONE',  #95 ) ;
#1053 = PRODUCT_RELATED_PRODUCT_CATEGORY ( 'detail', '', ( #1031 ) ) ;
#1054 = ORIENTED_EDGE ( 'NONE', *, *, #1139, .T. ) ;
#1055 = ORIENTED_EDGE ( 'NONE', *, *, #1083, .F. ) ;
#1056 = DIRECTION ( 'NONE',  ( 0.0000000000000000000, 0.0000000000000000000, -1.000000000000000000 ) ) ;
#1057 = VERTEX_POINT ( 'NONE', #923 ) ;
#1058 = EDGE_CURVE ( 'NONE', #783, #199, #243, .T. ) ;
#1059 = CARTESIAN_POINT ( 'NONE',  ( -3.559999999999999609, -1.950000000000001288, 10.94999999999999929 ) ) ;
#1060 = DIRECTION ( 'NONE',  ( -1.000000000000000000, -0.0000000000000000000, -0.0000000000000000000 ) ) ;
#1061 = VERTEX_POINT ( 'NONE', #822 ) ;
#1062 = AXIS2_PLACEMENT_3D ( 'NONE', #473, #584, #460 ) ;
#1063 = CARTESIAN_POINT ( 'NONE',  ( -4.059999999999999609, -2.200000000000000622, 10.94999999999999929 ) ) ;
#1064 = VERTEX_POINT ( 'NONE', #816 ) ;
#1065 = VECTOR ( 'NONE', #149, 1000.000000000000000 ) ;
#1066 = VECTOR ( 'NONE', #70, 1000.000000000000114 ) ;
#1067 = DIRECTION ( 'NONE',  ( 0.0000000000000000000, -1.000000000000000000, 0.0000000000000000000 ) ) ;
#1068 = EDGE_LOOP ( 'NONE', ( #1276, #969, #487, #1164 ) ) ;
#1069 = VECTOR ( 'NONE', #830, 1000.000000000000000 ) ;
#1070 = ADVANCED_FACE ( 'NONE', ( #1353 ), #309, .F. ) ;
#1071 = VECTOR ( 'NONE', #343, 1000.000000000000000 ) ;
#1072 = VERTEX_POINT ( 'NONE', #201 ) ;
#1073 = DIRECTION ( 'NONE',  ( -1.000000000000000000, 0.0000000000000000000, -0.0000000000000000000 ) ) ;
#1074 = EDGE_CURVE ( 'NONE', #1315, #698, #564, .T. ) ;
#1075 = ORIENTED_EDGE ( 'NONE', *, *, #250, .F. ) ;
#1076 = ADVANCED_FACE ( 'NONE', ( #207 ), #1247, .F. ) ;
#1077 = CARTESIAN_POINT ( 'NONE',  ( 3.560000000000000497, -1.950000000000001288, 10.94999999999999929 ) ) ;
#1078 = CARTESIAN_POINT ( 'NONE',  ( -9.140000000000000568, -1.950000000000001288, 15.34999999999999964 ) ) ;
#1079 = ORIENTED_EDGE ( 'NONE', *, *, #529, .F. ) ;
#1080 = DIRECTION ( 'NONE',  ( 5.092269745577701068E-17, -0.9999025240093042388, -0.01396218033914530324 ) ) ;
#1081 = LOCAL_TIME ( 9, 11, 55.00000000000000000, #39 ) ;
#1082 = CARTESIAN_POINT ( 'NONE',  ( -10.90000000000000036, -4.650000000000000355, 11.35000000000000320 ) ) ;
#1083 = EDGE_CURVE ( 'NONE', #1057, #648, #1295, .T. ) ;
#1084 = ADVANCED_FACE ( 'NONE', ( #408 ), #921, .F. ) ;
#1085 = COORDINATED_UNIVERSAL_TIME_OFFSET ( 8, 0, .AHEAD. ) ;
#1086 = AXIS2_PLACEMENT_3D ( 'NONE', #1301, #1188, #674 ) ;
#1087 = VECTOR ( 'NONE', #1308, 1000.000000000000000 ) ;
#1088 = DIRECTION ( 'NONE',  ( 0.0000000000000000000, -0.0000000000000000000, 1.000000000000000000 ) ) ;
#1089 = CARTESIAN_POINT ( 'NONE',  ( 2.775557561562889872E-16, -8.326672684688670109E-16, 10.94999999999999929 ) ) ;
#1090 = ORIENTED_EDGE ( 'NONE', *, *, #62, .T. ) ;
#1091 = LINE ( 'NONE', #850, #1309 ) ;
#1092 = VECTOR ( 'NONE', #1244, 1000.000000000000000 ) ;
#1093 = DIRECTION ( 'NONE',  ( -1.000000000000000000, 0.0000000000000000000, -0.0000000000000000000 ) ) ;
#1094 = ADVANCED_FACE ( 'NONE', ( #323 ), #1354, .T. ) ;
#1095 = CARTESIAN_POINT ( 'NONE',  ( -6.099999999999999645, -1.950000000000001288, 15.34999999999999964 ) ) ;
#1096 = EDGE_LOOP ( 'NONE', ( #183, #1204, #46, #413 ) ) ;
#1097 = CARTESIAN_POINT ( 'NONE',  ( 10.40000000000000213, -4.650000000000000355, 11.35000000000000142 ) ) ;
#1098 = DIRECTION ( 'NONE',  ( 2.387110866245702771E-16, -1.000000000000000000, -3.333577096191394007E-18 ) ) ;
#1099 = ORIENTED_EDGE ( 'NONE', *, *, #910, .T. ) ;
#1100 = CARTESIAN_POINT ( 'NONE',  ( 8.640000000000002345, -2.200000000000000622, 15.34999999999999964 ) ) ;
#1101 = VERTEX_POINT ( 'NONE', #87 ) ;
#1102 = DIRECTION ( 'NONE',  ( -1.000000000000000000, -0.0000000000000000000, -0.0000000000000000000 ) ) ;
#1103 = EDGE_CURVE ( 'NONE', #448, #1283, #823, .T. ) ;
#1104 = EDGE_LOOP ( 'NONE', ( #1327, #164, #693, #739 ) ) ;
#1105 = LINE ( 'NONE', #844, #836 ) ;
#1106 = FACE_BOUND ( 'NONE', #34, .T. ) ;
#1107 = PRODUCT_DEFINITION_FORMATION_WITH_SPECIFIED_SOURCE ( 'ANY', '', #1031, .NOT_KNOWN. ) ;
#1108 = PLANE ( 'NONE',  #1284 ) ;
#1109 = VECTOR ( 'NONE', #425, 1000.000000000000000 ) ;
#1110 = LINE ( 'NONE', #148, #1019 ) ;
#1111 = CARTESIAN_POINT ( 'NONE',  ( 10.40000000000000213, -4.650000000000000355, 11.35000000000000142 ) ) ;
#1112 = EDGE_CURVE ( 'NONE', #1008, #373, #598, .T. ) ;
#1113 = ORIENTED_EDGE ( 'NONE', *, *, #194, .T. ) ;
#1114 = CARTESIAN_POINT ( 'NONE',  ( -6.599999999999999645, -1.950000000000001288, 15.34999999999999964 ) ) ;
#1115 = PLANE ( 'NONE',  #333 ) ;
#1116 = VERTEX_POINT ( 'NONE', #407 ) ;
#1117 = VECTOR ( 'NONE', #1146, 1000.000000000000000 ) ;
#1118 = FACE_BOUND ( 'NONE', #1281, .T. ) ;
#1119 = CARTESIAN_POINT ( 'NONE',  ( 10.90000000000000036, 4.649999999999999467, 11.35000000000000142 ) ) ;
#1120 = AXIS2_PLACEMENT_3D ( 'NONE', #554, #216, #945 ) ;
#1121 = VECTOR ( 'NONE', #547, 1000.000000000000000 ) ;
#1122 = ORIENTED_EDGE ( 'NONE', *, *, #865, .F. ) ;
#1123 = VECTOR ( 'NONE', #1152, 1000.000000000000000 ) ;
#1124 = DATE_TIME_ROLE ( 'creation_date' ) ;
#1125 = CARTESIAN_POINT ( 'NONE',  ( -4.059999999999999609, -1.950000000000001288, 15.34999999999999964 ) ) ;
#1126 = ORIENTED_EDGE ( 'NONE', *, *, #833, .T. ) ;
#1127 = ORIENTED_EDGE ( 'NONE', *, *, #1058, .T. ) ;
#1128 = DIRECTION ( 'NONE',  ( -0.0000000000000000000, -0.0000000000000000000, -1.000000000000000000 ) ) ;
#1129 = VERTEX_POINT ( 'NONE', #208 ) ;
#1130 = ORIENTED_EDGE ( 'NONE', *, *, #405, .F. ) ;
#1131 = DIRECTION ( 'NONE',  ( 0.0000000000000000000, 0.0000000000000000000, -1.000000000000000000 ) ) ;
#1132 = ORIENTED_EDGE ( 'NONE', *, *, #1243, .T. ) ;
#1133 = LINE ( 'NONE', #614, #1165 ) ;
#1134 = EDGE_CURVE ( 'NONE', #949, #881, #988, .T. ) ;
#1135 = LINE ( 'NONE', #224, #950 ) ;
#1136 = CARTESIAN_POINT ( 'NONE',  ( 0.0000000000000000000, 0.0000000000000000000, 15.34999999999999964 ) ) ;
#1137 = DIRECTION ( 'NONE',  ( -0.0000000000000000000, -0.0000000000000000000, -1.000000000000000000 ) ) ;
#1138 = CARTESIAN_POINT ( 'NONE',  ( 10.89999999999999858, 4.650000000000000355, 11.35000000000000142 ) ) ;
#1139 = EDGE_CURVE ( 'NONE', #1101, #465, #166, .T. ) ;
#1140 = PERSON ( 'UNSPECIFIED', 'UNSPECIFIED', 'UNSPECIFIED', ('UNSPECIFIED'), ('UNSPECIFIED'), ('UNSPECIFIED') ) ;
#1141 = DIRECTION ( 'NONE',  ( 0.0000000000000000000, -1.000000000000000000, 0.0000000000000000000 ) ) ;
#1142 = CARTESIAN_POINT ( 'NONE',  ( 0.0000000000000000000, -5.852929625581609889E-16, 0.0000000000000000000 ) ) ;
#1143 = ORIENTED_EDGE ( 'NONE', *, *, #220, .T. ) ;
#1144 = LINE ( 'NONE', #644, #440 ) ;
#1145 = LINE ( 'NONE', #664, #981 ) ;
#1146 = DIRECTION ( 'NONE',  ( -4.774221732491405543E-16, 1.000000000000000000, -6.667154192382788013E-18 ) ) ;
#1147 = EDGE_CURVE ( 'NONE', #58, #788, #1005, .T. ) ;
#1148 = DIRECTION ( 'NONE',  ( 0.0000000000000000000, -0.0000000000000000000, 1.000000000000000000 ) ) ;
#1149 = ORIENTED_EDGE ( 'NONE', *, *, #133, .T. ) ;
#1150 = LINE ( 'NONE', #1138, #971 ) ;
#1151 = ORIENTED_EDGE ( 'NONE', *, *, #640, .T. ) ;
#1152 = DIRECTION ( 'NONE',  ( -0.0000000000000000000, -0.0000000000000000000, -1.000000000000000000 ) ) ;
#1153 = AXIS2_PLACEMENT_3D ( 'NONE', #952, #331, #562 ) ;
#1154 = CARTESIAN_POINT ( 'NONE',  ( -10.74151380455179705, -4.491513804551789057, -1.609273336547932606E-16 ) ) ;
#1155 = ORIENTED_EDGE ( 'NONE', *, *, #761, .T. ) ;
#1156 = CARTESIAN_POINT ( 'NONE',  ( -9.140000000000000568, -1.950000000000001288, 10.94999999999999929 ) ) ;
#1157 = CARTESIAN_POINT ( 'NONE',  ( -6.599999999999999645, -2.200000000000000622, 15.34999999999999964 ) ) ;
#1158 = DIRECTION ( 'NONE',  ( -0.0000000000000000000, -0.0000000000000000000, -1.000000000000000000 ) ) ;
#1159 = CARTESIAN_POINT ( 'NONE',  ( -6.599999999999999645, -2.200000000000000622, 15.34999999999999964 ) ) ;
#1160 = AXIS2_PLACEMENT_3D ( 'NONE', #1142, #1051, #438 ) ;
#1161 = DIRECTION ( 'NONE',  ( -0.9999025240093042388, 0.0000000000000000000, -0.01396218033914530324 ) ) ;
#1162 = CARTESIAN_POINT ( 'NONE',  ( 3.560000000000000497, -2.200000000000000622, 15.34999999999999964 ) ) ;
#1163 = DIRECTION ( 'NONE',  ( 0.0000000000000000000, 1.000000000000000000, 0.0000000000000000000 ) ) ;
#1164 = ORIENTED_EDGE ( 'NONE', *, *, #774, .T. ) ;
#1165 = VECTOR ( 'NONE', #82, 1000.000000000000000 ) ;
#1166 = DIRECTION ( 'NONE',  ( -0.0000000000000000000, -0.0000000000000000000, -1.000000000000000000 ) ) ;
#1167 = VERTEX_POINT ( 'NONE', #733 ) ;
#1168 = LINE ( 'NONE', #652, #809 ) ;
#1169 = CARTESIAN_POINT ( 'NONE',  ( 6.600000000000001421, -2.200000000000000622, 15.34999999999999964 ) ) ;
#1170 = LINE ( 'NONE', #451, #1123 ) ;
#1171 = EDGE_CURVE ( 'NONE', #986, #912, #511, .T. ) ;
#1172 = CARTESIAN_POINT ( 'NONE',  ( -3.559999999999999609, -1.950000000000001288, 15.34999999999999964 ) ) ;
#1173 = DIRECTION ( 'NONE',  ( 0.0000000000000000000, 1.000000000000000000, 0.0000000000000000000 ) ) ;
#1174 = DIRECTION ( 'NONE',  ( 0.0000000000000000000, -0.0000000000000000000, -1.000000000000000000 ) ) ;
#1175 = CARTESIAN_POINT ( 'NONE',  ( 10.40000000000000213, -4.649999999999999467, 11.35000000000000142 ) ) ;
#1176 = EDGE_CURVE ( 'NONE', #465, #1283, #130, .T. ) ;
#1177 = DIRECTION ( 'NONE',  ( 0.0000000000000000000, -1.000000000000000000, 0.0000000000000000000 ) ) ;
#1178 = ADVANCED_FACE ( 'NONE', ( #47 ), #10, .F. ) ;
#1179 = AXIS2_PLACEMENT_3D ( 'NONE', #1048, #114, #129 ) ;
#1180 =( NAMED_UNIT ( * ) PLANE_ANGLE_UNIT ( ) SI_UNIT ( $, .RADIAN. ) );
#1181 = VERTEX_POINT ( 'NONE', #441 ) ;
#1182 = VECTOR ( 'NONE', #717, 1000.000000000000114 ) ;
#1183 = DIRECTION ( 'NONE',  ( -0.0000000000000000000, -0.0000000000000000000, -1.000000000000000000 ) ) ;
#1184 = LINE ( 'NONE', #272, #968 ) ;
#1185 = CARTESIAN_POINT ( 'NONE',  ( -4.059999999999999609, -2.200000000000000622, 15.34999999999999964 ) ) ;
#1186 = ORIENTED_EDGE ( 'NONE', *, *, #1210, .T. ) ;
#1187 = LINE ( 'NONE', #541, #597 ) ;
#1188 = DIRECTION ( 'NONE',  ( 0.0000000000000000000, 0.0000000000000000000, 1.000000000000000000 ) ) ;
#1189 = ORIENTED_EDGE ( 'NONE', *, *, #551, .F. ) ;
#1190 = ADVANCED_FACE ( 'NONE', ( #9 ), #336, .T. ) ;
#1191 = CARTESIAN_POINT ( 'NONE',  ( 1.020000000000000462, -2.200000000000000622, 15.34999999999999964 ) ) ;
#1192 = CARTESIAN_POINT ( 'NONE',  ( 6.100000000000001421, -1.950000000000001288, 15.34999999999999964 ) ) ;
#1193 = EDGE_LOOP ( 'NONE', ( #622, #189, #1011, #313 ) ) ;
#1194 = CARTESIAN_POINT ( 'NONE',  ( -3.559999999999999609, -2.200000000000000622, 10.94999999999999929 ) ) ;
#1195 = ADVANCED_FACE ( 'NONE', ( #278 ), #1285, .F. ) ;
#1196 = CARTESIAN_POINT ( 'NONE',  ( -4.059999999999999609, -2.200000000000000622, 10.94999999999999929 ) ) ;
#1197 = ORIENTED_EDGE ( 'NONE', *, *, #405, .T. ) ;
#1198 = EDGE_LOOP ( 'NONE', ( #191, #1079, #927, #521 ) ) ;
#1199 = CARTESIAN_POINT ( 'NONE',  ( -6.599999999999999645, -1.950000000000001288, 15.34999999999999964 ) ) ;
#1200 = AXIS2_PLACEMENT_3D ( 'NONE', #67, #1007, #1088 ) ;
#1201 = ORIENTED_EDGE ( 'NONE', *, *, #364, .T. ) ;
#1202 = LINE ( 'NONE', #57, #913 ) ;
#1203 = DIRECTION ( 'NONE',  ( -0.0000000000000000000, -0.0000000000000000000, -1.000000000000000000 ) ) ;
#1204 = ORIENTED_EDGE ( 'NONE', *, *, #695, .T. ) ;
#1205 = ADVANCED_FACE ( 'NONE', ( #246 ), #317, .F. ) ;
#1206 = VECTOR ( 'NONE', #1010, 1000.000000000000000 ) ;
#1207 = ORIENTED_EDGE ( 'NONE', *, *, #1302, .T. ) ;
#1208 = LINE ( 'NONE', #1159, #443 ) ;
#1209 = CARTESIAN_POINT ( 'NONE',  ( 1.520000000000000906, -1.950000000000001288, 10.94999999999999929 ) ) ;
#1210 = EDGE_CURVE ( 'NONE', #586, #263, #1170, .T. ) ;
#1211 = AXIS2_PLACEMENT_3D ( 'NONE', #31, #762, #651 ) ;
#1212 = ORIENTED_EDGE ( 'NONE', *, *, #529, .T. ) ;
#1213 = CARTESIAN_POINT ( 'NONE',  ( 6.600000000000001421, -2.200000000000000622, 10.94999999999999929 ) ) ;
#1214 = DIRECTION ( 'NONE',  ( 0.0000000000000000000, -1.000000000000000000, 0.0000000000000000000 ) ) ;
#1215 = PERSON_AND_ORGANIZATION ( #1140, #933 ) ;
#1216 = EDGE_CURVE ( 'NONE', #986, #1346, #795, .T. ) ;
#1217 = ORIENTED_EDGE ( 'NONE', *, *, #895, .F. ) ;
#1218 = VECTOR ( 'NONE', #1329, 1000.000000000000000 ) ;
#1219 = VECTOR ( 'NONE', #52, 1000.000000000000000 ) ;
#1220 = APPROVAL_STATUS ( 'not_yet_approved' ) ;
#1221 = ORIENTED_EDGE ( 'NONE', *, *, #617, .F. ) ;
#1222 = CARTESIAN_POINT ( 'NONE',  ( 6.600000000000001421, -2.200000000000000622, 15.34999999999999964 ) ) ;
#1223 = VECTOR ( 'NONE', #445, 1000.000000000000000 ) ;
#1224 = CARTESIAN_POINT ( 'NONE',  ( -10.40000000000000213, 4.650000000000000355, 11.35000000000000142 ) ) ;
#1225 = EDGE_CURVE ( 'NONE', #732, #1008, #920, .T. ) ;
#1226 = ORIENTED_EDGE ( 'NONE', *, *, #875, .F. ) ;
#1227 = DIRECTION ( 'NONE',  ( -0.01396081962705680163, -0.01396081962705802461, -0.9998050765177587396 ) ) ;
#1228 = ORIENTED_EDGE ( 'NONE', *, *, #954, .F. ) ;
#1229 = PERSON_AND_ORGANIZATION_ROLE ( 'design_supplier' ) ;
#1230 = ORIENTED_EDGE ( 'NONE', *, *, #431, .T. ) ;
#1231 = CARTESIAN_POINT ( 'NONE',  ( 4.060000000000001386, -2.200000000000000622, 15.34999999999999964 ) ) ;
#1232 = VERTEX_POINT ( 'NONE', #1361 ) ;
#1233 = PERSON_AND_ORGANIZATION_ROLE ( 'classification_officer' ) ;
#1234 = FACE_OUTER_BOUND ( 'NONE', #196, .T. ) ;
#1235 = ORIENTED_EDGE ( 'NONE', *, *, #79, .T. ) ;
#1236 = CARTESIAN_POINT ( 'NONE',  ( -6.099999999999999645, -2.200000000000000622, 15.34999999999999964 ) ) ;
#1237 = VECTOR ( 'NONE', #599, 1000.000000000000000 ) ;
#1238 = EDGE_LOOP ( 'NONE', ( #391, #592, #71, #815 ) ) ;
#1239 = FACE_OUTER_BOUND ( 'NONE', #292, .T. ) ;
#1240 = VECTOR ( 'NONE', #235, 1000.000000000000000 ) ;
#1241 = DIRECTION ( 'NONE',  ( -0.0000000000000000000, -1.000000000000000000, -0.0000000000000000000 ) ) ;
#1242 = VERTEX_POINT ( 'NONE', #638 ) ;
#1243 = EDGE_CURVE ( 'NONE', #1016, #21, #305, .T. ) ;
#1244 = DIRECTION ( 'NONE',  ( -0.0000000000000000000, -0.0000000000000000000, -1.000000000000000000 ) ) ;
#1245 = AXIS2_PLACEMENT_3D ( 'NONE', #247, #1080, #469 ) ;
#1246 = EDGE_LOOP ( 'NONE', ( #857, #117, #924, #840 ) ) ;
#1247 = PLANE ( 'NONE',  #748 ) ;
#1248 = ORIENTED_EDGE ( 'NONE', *, *, #585, .F. ) ;
#1249 = LINE ( 'NONE', #697, #900 ) ;
#1250 = FACE_BOUND ( 'NONE', #817, .T. ) ;
#1251 = EDGE_CURVE ( 'NONE', #1283, #588, #63, .T. ) ;
#1252 = PLANE ( 'NONE',  #374 ) ;
#1253 = ORIENTED_EDGE ( 'NONE', *, *, #936, .T. ) ;
#1254 = CARTESIAN_POINT ( 'NONE',  ( 3.560000000000000497, -2.200000000000000622, 10.94999999999999929 ) ) ;
#1255 = AXIS2_PLACEMENT_3D ( 'NONE', #1169, #322, #659 ) ;
#1256 = LINE ( 'NONE', #25, #147 ) ;
#1257 = EDGE_LOOP ( 'NONE', ( #504, #496, #974, #492 ) ) ;
#1258 = CARTESIAN_POINT ( 'NONE',  ( 9.140000000000002345, -2.200000000000000622, 15.34999999999999964 ) ) ;
#1259 = DIRECTION ( 'NONE',  ( 1.000000000000000000, 0.0000000000000000000, -0.0000000000000000000 ) ) ;
#1260 = VERTEX_POINT ( 'NONE', #941 ) ;
#1261 = DIRECTION ( 'NONE',  ( 1.000000000000000000, 0.0000000000000000000, 0.0000000000000000000 ) ) ;
#1262 = DIRECTION ( 'NONE',  ( 0.0000000000000000000, 0.9999025240093042388, -0.01396218033914530324 ) ) ;
#1263 = AXIS2_PLACEMENT_3D ( 'NONE', #537, #426, #99 ) ;
#1264 = CARTESIAN_POINT ( 'NONE',  ( -8.640000000000000568, -2.200000000000000622, 10.94999999999999929 ) ) ;
#1265 = DIRECTION ( 'NONE',  ( -0.0000000000000000000, -1.000000000000000000, -0.0000000000000000000 ) ) ;
#1266 = APPROVAL_DATE_TIME ( #743, #959 ) ;
#1267 = ORIENTED_EDGE ( 'NONE', *, *, #1210, .F. ) ;
#1268 = LINE ( 'NONE', #60, #42 ) ;
#1269 = VERTEX_POINT ( 'NONE', #1063 ) ;
#1270 = CARTESIAN_POINT ( 'NONE',  ( 3.560000000000000497, -1.950000000000001288, 15.34999999999999964 ) ) ;
#1271 = AXIS2_PLACEMENT_3D ( 'NONE', #1192, #1214, #705 ) ;
#1272 = DIRECTION ( 'NONE',  ( -1.000000000000000000, -5.091773371539360726E-17, -7.109918852332943588E-19 ) ) ;
#1273 = VECTOR ( 'NONE', #316, 1000.000000000000000 ) ;
#1274 = VECTOR ( 'NONE', #1021, 1000.000000000000000 ) ;
#1275 = CARTESIAN_POINT ( 'NONE',  ( 1.020000000000000462, -1.950000000000001288, 15.34999999999999964 ) ) ;
#1276 = ORIENTED_EDGE ( 'NONE', *, *, #379, .T. ) ;
#1277 = CARTESIAN_POINT ( 'NONE',  ( -10.74152925315070028, -4.650000000000000355, 0.001106352494397269985 ) ) ;
#1278 = UNCERTAINTY_MEASURE_WITH_UNIT (LENGTH_MEASURE( 1.000000000000000082E-05 ), #464, 'distance_accuracy_value', 'NONE');
#1279 = EDGE_CURVE ( 'NONE', #1242, #986, #1324, .T. ) ;
#1280 = DIRECTION ( 'NONE',  ( -1.000000000000000000, -5.091773371539360726E-17, -7.109918852332943588E-19 ) ) ;
#1281 = EDGE_LOOP ( 'NONE', ( #452, #595, #995, #787 ) ) ;
#1282 = ADVANCED_FACE ( 'NONE', ( #624 ), #1052, .T. ) ;
#1283 = VERTEX_POINT ( 'NONE', #125 ) ;
#1284 = AXIS2_PLACEMENT_3D ( 'NONE', #64, #169, #482 ) ;
#1285 = PLANE ( 'NONE',  #435 ) ;
#1286 = LOCAL_TIME ( 9, 11, 55.00000000000000000, #312 ) ;
#1287 = ORIENTED_EDGE ( 'NONE', *, *, #1074, .T. ) ;
#1288 = LINE ( 'NONE', #1037, #560 ) ;
#1289 = VECTOR ( 'NONE', #782, 1000.000000000000000 ) ;
#1290 = CARTESIAN_POINT ( 'NONE',  ( 8.640000000000002345, -2.200000000000000622, 10.94999999999999929 ) ) ;
#1291 = VERTEX_POINT ( 'NONE', #233 ) ;
#1292 = VECTOR ( 'NONE', #1036, 1000.000000000000000 ) ;
#1293 = ADVANCED_FACE ( 'NONE', ( #29 ), #20, .F. ) ;
#1294 = DIRECTION ( 'NONE',  ( 1.000000000000000000, 0.0000000000000000000, 0.0000000000000000000 ) ) ;
#1295 = LINE ( 'NONE', #411, #951 ) ;
#1296 = EDGE_CURVE ( 'NONE', #156, #618, #265, .T. ) ;
#1297 = EDGE_LOOP ( 'NONE', ( #888, #365, #531, #442 ) ) ;
#1298 = CARTESIAN_POINT ( 'NONE',  ( 8.640000000000002345, -1.950000000000001288, 15.34999999999999964 ) ) ;
#1299 = ORIENTED_EDGE ( 'NONE', *, *, #1342, .F. ) ;
#1300 = ADVANCED_FACE ( 'NONE', ( #719 ), #973, .T. ) ;
#1301 = CARTESIAN_POINT ( 'NONE',  ( 0.0000000000000000000, 0.0000000000000000000, 0.0000000000000000000 ) ) ;
#1302 = EDGE_CURVE ( 'NONE', #528, #698, #1340, .T. ) ;
#1303 = ORIENTED_EDGE ( 'NONE', *, *, #1139, .F. ) ;
#1304 = EDGE_LOOP ( 'NONE', ( #369, #1235, #137, #281, #1030, #758, #225, #381 ) ) ;
#1305 = DIRECTION ( 'NONE',  ( 0.0000000000000000000, 1.000000000000000000, 0.0000000000000000000 ) ) ;
#1306 = LINE ( 'NONE', #495, #24 ) ;
#1307 = DIRECTION ( 'NONE',  ( -1.000000000000000000, 0.0000000000000000000, -0.0000000000000000000 ) ) ;
#1308 = DIRECTION ( 'NONE',  ( -0.0000000000000000000, -1.000000000000000000, -0.0000000000000000000 ) ) ;
#1309 = VECTOR ( 'NONE', #530, 1000.000000000000000 ) ;
#1310 = VECTOR ( 'NONE', #43, 1000.000000000000000 ) ;
#1311 = CARTESIAN_POINT ( 'NONE',  ( -4.059999999999999609, -2.200000000000000622, 15.34999999999999964 ) ) ;
#1312 = AXIS2_PLACEMENT_3D ( 'NONE', #627, #311, #1259 ) ;
#1313 = ORIENTED_EDGE ( 'NONE', *, *, #992, .T. ) ;
#1314 = CARTESIAN_POINT ( 'NONE',  ( 6.600000000000001421, -1.950000000000001288, 10.94999999999999929 ) ) ;
#1315 = VERTEX_POINT ( 'NONE', #662 ) ;
#1316 = CARTESIAN_POINT ( 'NONE',  ( -8.640000000000000568, -1.950000000000001288, 15.34999999999999964 ) ) ;
#1317 = EDGE_CURVE ( 'NONE', #549, #935, #842, .T. ) ;
#1318 = PERSON_AND_ORGANIZATION ( #1140, #933 ) ;
#1319 = ORIENTED_EDGE ( 'NONE', *, *, #516, .F. ) ;
#1320 = PLANE ( 'NONE',  #1200 ) ;
#1321 = FACE_OUTER_BOUND ( 'NONE', #1238, .T. ) ;
#1322 = FACE_OUTER_BOUND ( 'NONE', #284, .T. ) ;
#1323 = VECTOR ( 'NONE', #1137, 1000.000000000000000 ) ;
#1324 = LINE ( 'NONE', #858, #1049 ) ;
#1325 = DIRECTION ( 'NONE',  ( -0.0000000000000000000, -0.0000000000000000000, -1.000000000000000000 ) ) ;
#1326 = EDGE_CURVE ( 'NONE', #354, #1101, #376, .T. ) ;
#1327 = ORIENTED_EDGE ( 'NONE', *, *, #276, .T. ) ;
#1328 = DIRECTION ( 'NONE',  ( 0.0000000000000000000, -1.000000000000000000, 0.0000000000000000000 ) ) ;
#1329 = DIRECTION ( 'NONE',  ( 1.000000000000000000, 0.0000000000000000000, 0.0000000000000000000 ) ) ;
#1330 = ORIENTED_EDGE ( 'NONE', *, *, #617, .T. ) ;
#1331 = ORIENTED_EDGE ( 'NONE', *, *, #761, .F. ) ;
#1332 = DIRECTION ( 'NONE',  ( -0.9999025050061671749, -4.774687240594480245E-16, -0.01396354118380470528 ) ) ;
#1333 = CALENDAR_DATE ( 2020, 7, 4 ) ;
#1334 = DIRECTION ( 'NONE',  ( 0.0000000000000000000, -0.0000000000000000000, -1.000000000000000000 ) ) ;
#1335 = AXIS2_PLACEMENT_3D ( 'NONE', #1032, #1141, #718 ) ;
#1336 = APPROVAL_PERSON_ORGANIZATION ( #793, #486, #483 ) ;
#1337 = LINE ( 'NONE', #163, #505 ) ;
#1338 = FACE_OUTER_BOUND ( 'NONE', #1304, .T. ) ;
#1339 = CARTESIAN_POINT ( 'NONE',  ( 1.020000000000000462, -2.200000000000000622, 15.34999999999999964 ) ) ;
#1340 = LINE ( 'NONE', #136, #731 ) ;
#1341 = ORIENTED_EDGE ( 'NONE', *, *, #936, .F. ) ;
#1342 = EDGE_CURVE ( 'NONE', #851, #549, #1110, .T. ) ;
#1343 = VERTEX_POINT ( 'NONE', #768 ) ;
#1344 = CARTESIAN_POINT ( 'NONE',  ( -9.140000000000000568, -2.200000000000000622, 15.34999999999999964 ) ) ;
#1345 = CARTESIAN_POINT ( 'NONE',  ( -8.640000000000000568, -2.200000000000000622, 15.34999999999999964 ) ) ;
#1346 = VERTEX_POINT ( 'NONE', #242 ) ;
#1347 = PERSON_AND_ORGANIZATION ( #1140, #933 ) ;
#1348 = EDGE_CURVE ( 'NONE', #263, #439, #446, .T. ) ;
#1349 = ORIENTED_EDGE ( 'NONE', *, *, #62, .F. ) ;
#1350 = CARTESIAN_POINT ( 'NONE',  ( -4.059999999999999609, -2.200000000000000622, 10.94999999999999929 ) ) ;
#1351 = VECTOR ( 'NONE', #838, 1000.000000000000000 ) ;
#1352 = LINE ( 'NONE', #873, #837 ) ;
#1353 = FACE_OUTER_BOUND ( 'NONE', #601, .T. ) ;
#1354 = PLANE ( 'NONE',  #1312 ) ;
#1355 = DIRECTION ( 'NONE',  ( 0.0000000000000000000, 1.000000000000000000, 0.0000000000000000000 ) ) ;
#1356 = ORIENTED_EDGE ( 'NONE', *, *, #1103, .T. ) ;
#1357 = EDGE_CURVE ( 'NONE', #199, #1129, #655, .T. ) ;
#1358 = ORIENTED_EDGE ( 'NONE', *, *, #371, .F. ) ;
#1359 = CARTESIAN_POINT ( 'NONE',  ( 10.74152925315070028, 4.650000000000000355, 0.001106352494397269985 ) ) ;
#1360 = CARTESIAN_POINT ( 'NONE',  ( -10.90000000000000036, 4.491529253150700285, 0.001106352494397150289 ) ) ;
#1361 = CARTESIAN_POINT ( 'NONE',  ( 8.640000000000002345, -2.200000000000000622, 15.34999999999999964 ) ) ;
#1362 = DATE_AND_TIME ( #1012, #69 ) ;
#1363 = CARTESIAN_POINT ( 'NONE',  ( -10.74151380455178817, -4.650000000000000355, 2.117582368135750848E-16 ) ) ;
ENDSEC;
END-ISO-10303-21;

